<svg xmlns="http://www.w3.org/2000/svg" xmlns:xlink="http://www.w3.org/1999/xlink" width="800" zoomAndPan="magnify" viewBox="0 0 600 599.999999" height="800" preserveAspectRatio="xMidYMid meet" version="1.2"><defs><clipPath id="d2e4f5d16d"><path d="M 9.757812 225 L 447.878906 225 L 447.878906 455.480469 L 9.757812 455.480469 Z M 9.757812 225 "/></clipPath></defs><g id="8d4461a78f"><g clip-rule="nonzero" clip-path="url(#d2e4f5d16d)"><path style=" stroke:none;fill-rule:nonzero;fill:#145e82;fill-opacity:1;" d="M 51.847656 357.390625 C 51.847656 290.558594 175.550781 236.375 328.148438 236.375 C 371.042969 236.375 411.65625 240.65625 447.878906 248.296875 C 402.394531 233.878906 346.5 225.375 286.058594 225.375 C 133.464844 225.375 9.757812 279.550781 9.757812 346.390625 C 9.757812 394.4375 73.6875 435.941406 166.332031 455.480469 C 96.972656 433.496094 51.847656 397.753906 51.847656 357.390625 "/></g><path style=" stroke:none;fill-rule:nonzero;fill:#2a9ab3;fill-opacity:1;" d="M 196.585938 194.378906 C 207.347656 205.992188 232.242188 201.828125 232.585938 188.355469 C 232.832031 178.472656 217.230469 169.730469 202.335938 174.679688 C 190.492188 179.757812 191.839844 189.257812 196.585938 194.378906 "/><path style=" stroke:none;fill-rule:nonzero;fill:#2a7794;fill-opacity:1;" d="M 129.972656 415.390625 C 127.640625 420.871094 136.542969 427.898438 146.121094 431.261719 C 157.398438 435.21875 168.519531 434.109375 164.882812 427.5 C 160.128906 418.890625 135.808594 407.664062 129.972656 415.390625 "/><path style=" stroke:none;fill-rule:nonzero;fill:#2a7794;fill-opacity:1;" d="M 141.722656 368.953125 C 140.992188 354.050781 123.078125 341.375 110.929688 351.28125 C 102.605469 360.125 108.304688 372.207031 115.011719 377.960938 C 127.195312 388.421875 142.421875 383.277344 141.722656 368.953125 "/><path style=" stroke:none;fill-rule:nonzero;fill:#2a7794;fill-opacity:1;" d="M 184.75 334.34375 C 184.988281 319.644531 168.945312 308.65625 153.667969 317.898438 C 140.949219 327.476562 143.953125 340.777344 150.148438 347.167969 C 162.480469 359.90625 184.476562 351.753906 184.75 334.34375 "/><path style=" stroke:none;fill-rule:nonzero;fill:#2a7794;fill-opacity:1;" d="M 208.761719 255.890625 C 208.796875 255.597656 208.804688 255.308594 208.835938 255.019531 C 195.09375 257.941406 181.90625 261.390625 169.390625 265.328125 C 169.523438 265.535156 169.644531 265.761719 169.78125 265.953125 C 180.242188 280.996094 206.109375 274.316406 208.761719 255.890625 "/><path style=" stroke:none;fill-rule:nonzero;fill:#2a9ab3;fill-opacity:1;" d="M 137.496094 168.953125 C 127.902344 174.324219 126.796875 181.753906 129.078125 185.316406 C 134.550781 193.875 156.285156 186.667969 158.507812 175.558594 C 160.042969 167.921875 149.433594 163.210938 137.496094 168.953125 "/><path style=" stroke:none;fill-rule:nonzero;fill:#2a9ab3;fill-opacity:1;" d="M 145.523438 219.847656 C 154.058594 232.414062 179.273438 224.984375 181.992188 209.09375 C 183.976562 197.507812 170.265625 188.824219 154.84375 196.085938 C 142.191406 203.308594 141.773438 214.328125 145.523438 219.847656 "/><path style=" stroke:none;fill-rule:nonzero;fill:#2a7794;fill-opacity:1;" d="M 87.191406 379.027344 C 86.988281 379.253906 86.773438 379.605469 86.597656 379.851562 C 83.351562 386.984375 91.453125 397.644531 98.234375 402.941406 C 108.042969 410.59375 117.003906 410.125 116.324219 402.003906 C 115.222656 388.789062 93.710938 371.832031 87.191406 379.027344 "/><path style=" stroke:none;fill-rule:nonzero;fill:#2a9ab3;fill-opacity:1;" d="M 170.199219 164.804688 C 179.996094 171.492188 201.972656 166.824219 200.351562 158.398438 C 199.242188 152.648438 184.929688 148.839844 173.042969 152.917969 C 163.890625 156.746094 166.441406 162.242188 170.199219 164.804688 "/><path style=" stroke:none;fill-rule:nonzero;fill:#2a7794;fill-opacity:1;" d="M 118.234375 299.460938 C 127.980469 313.4375 150.96875 305.929688 154.410156 287.644531 C 155.484375 281.945312 154.035156 276.097656 150.816406 271.71875 C 145.546875 273.703125 140.425781 275.777344 135.460938 277.949219 C 128.097656 281.175781 121.246094 284.542969 114.882812 288.035156 C 114.890625 292.519531 116.238281 296.589844 118.234375 299.460938 "/><path style=" stroke:none;fill-rule:nonzero;fill:#2a7794;fill-opacity:1;" d="M 106.3125 325.953125 C 108.460938 314.472656 102.859375 303.796875 95.441406 300.210938 C 87.824219 305.699219 81.328125 311.417969 76.011719 317.3125 C 75.972656 323.351562 78.023438 329.09375 80.359375 332.65625 C 88.804688 345.539062 103.363281 341.789062 106.3125 325.953125 "/><path style=" stroke:none;fill-rule:nonzero;fill:#2a7794;fill-opacity:1;" d="M 65.550781 331.769531 C 61.808594 338.535156 59.527344 345.457031 58.808594 352.476562 C 59.894531 355.203125 61.121094 357.679688 62.277344 359.582031 C 68.117188 369.234375 74.699219 371.304688 76.644531 364.105469 C 79.207031 354.625 72.476562 337.964844 65.550781 331.769531 "/><path style=" stroke:none;fill-rule:nonzero;fill:#2a7794;fill-opacity:1;" d="M 150.601562 391.175781 C 144.269531 398.019531 150.140625 406.828125 159.46875 411.394531 C 171.160156 417.113281 187.066406 415.464844 183.363281 403.597656 C 180.003906 392.820312 161.457031 382.441406 150.601562 391.175781 "/><path style=" stroke:none;fill-rule:nonzero;fill:#2a9ab3;fill-opacity:1;" d="M 144.867188 151.285156 C 145.644531 151.667969 147.148438 151.878906 147.585938 151.929688 C 156.785156 153.066406 170.429688 148.898438 168.5625 146.359375 C 167.191406 144.492188 157.441406 145.320312 146.9375 149.1875 C 144.941406 149.972656 143.511719 150.621094 144.867188 151.285156 "/><path style=" stroke:none;fill-rule:nonzero;fill:#2a9ab3;fill-opacity:1;" d="M 205.421875 287.191406 C 191.644531 295.246094 192.761719 308.945312 197.957031 316.09375 C 208.507812 330.636719 230.941406 325.167969 233.777344 307.359375 C 236.136719 292.59375 221.859375 279.667969 205.421875 287.191406 "/><path style=" stroke:none;fill-rule:nonzero;fill:#2a7794;fill-opacity:1;" d="M 67.730469 241.421875 C 78.117188 233.242188 83.792969 210.917969 77.519531 210.328125 C 75.980469 210.183594 74.421875 211.539062 73.390625 212.433594 C 67.367188 218.414062 62.671875 228.929688 61.613281 235.636719 C 60.523438 242.535156 63.148438 245.023438 67.730469 241.421875 "/><path style=" stroke:none;fill-rule:nonzero;fill:#2a7794;fill-opacity:1;" d="M 195.914062 418.738281 C 191.535156 423.648438 199.191406 428.628906 208.789062 430.414062 C 216.480469 431.851562 232.167969 431.714844 228.179688 426.160156 C 224.207031 420.621094 204.585938 411.957031 195.914062 418.738281 "/><path style=" stroke:none;fill-rule:nonzero;fill:#2a9ab3;fill-opacity:1;" d="M 215.894531 377.003906 C 214.539062 364.34375 199.910156 355.046875 186.820312 362.886719 C 177.109375 370.273438 179.492188 380.898438 187.402344 386.90625 C 199.347656 395.972656 217.488281 391.824219 215.894531 377.003906 "/><path style=" stroke:none;fill-rule:nonzero;fill:#2a7794;fill-opacity:1;" d="M 140.351562 157.539062 C 141.109375 154.425781 135.699219 153.839844 127.859375 157.792969 C 120.429688 161.773438 121.265625 164.441406 121.511719 164.933594 C 123.546875 169.058594 139.039062 162.980469 140.351562 157.539062 "/><path style=" stroke:none;fill-rule:nonzero;fill:#2a9ab3;fill-opacity:1;" d="M 107.929688 223.929688 C 96.828125 232.082031 94.773438 243.527344 96.753906 249.957031 C 107.128906 245.921875 118.1875 242.222656 129.863281 238.90625 C 133.535156 225.957031 123.589844 216.394531 111.167969 222.097656 C 110.148438 222.558594 108.878906 223.339844 107.929688 223.929688 "/><path style=" stroke:none;fill-rule:nonzero;fill:#2a7794;fill-opacity:1;" d="M 99.382812 183.867188 C 107.113281 181.054688 116.492188 168.578125 113.238281 167.242188 C 112.25 166.839844 110.222656 168.179688 109.011719 168.972656 C 103.476562 172.804688 98.59375 177.621094 96.855469 180.960938 C 95.386719 183.78125 96.402344 184.949219 99.382812 183.867188 "/><path style=" stroke:none;fill-rule:nonzero;fill:#2a7794;fill-opacity:1;" d="M 111.5625 206.15625 C 119.886719 195.828125 117.253906 186.089844 109.117188 187.019531 C 106.234375 187.351562 103.917969 188.816406 102.382812 189.785156 C 93.078125 196.5 89.648438 206 90.191406 210.59375 C 91.238281 219.523438 104.019531 215.511719 111.5625 206.15625 "/><path style=" stroke:none;fill-rule:nonzero;fill:#2a7794;fill-opacity:1;" d="M 73.652344 251.507812 C 71.710938 252.070312 70.484375 253.101562 69.195312 254.191406 C 65.941406 257.515625 63.828125 261.664062 62.566406 265.867188 C 68.820312 262.378906 75.503906 259.042969 82.574219 255.878906 C 80.699219 252.269531 77.625 250.351562 73.652344 251.507812 "/><g style="fill:#145e82;fill-opacity:1;"><g transform="translate(264.747001, 409.052622)"><path style="stroke:none" d="M 35.640625 2.5 C 32.941406 2.5 29.890625 1.570312 26.484375 -0.28125 C 23.085938 -2.144531 20.101562 -5.164062 17.53125 -9.34375 C 14.957031 -13.519531 13.671875 -19.070312 13.671875 -26 C 13.671875 -26.90625 13.671875 -27.773438 13.671875 -28.609375 C 13.671875 -29.441406 13.738281 -30.304688 13.875 -31.203125 C 14.644531 -38.265625 15.445312 -46.738281 16.28125 -56.625 C 17.113281 -66.519531 17.882812 -77.019531 18.59375 -88.125 C 19.300781 -99.238281 19.910156 -110.0625 20.421875 -120.59375 C 17.597656 -122.78125 15.09375 -125.347656 12.90625 -128.296875 C 10.71875 -131.253906 9.625 -133.757812 9.625 -135.8125 C 9.625 -136.96875 10.007812 -137.769531 10.78125 -138.21875 C 11.550781 -138.664062 12.390625 -138.890625 13.296875 -138.890625 C 16.890625 -138.890625 21.125 -139.019531 26 -139.28125 C 30.882812 -139.539062 35.734375 -139.765625 40.546875 -139.953125 C 45.367188 -140.148438 49.445312 -140.25 52.78125 -140.25 C 60.101562 -140.25 66.941406 -139.023438 73.296875 -136.578125 C 79.648438 -134.140625 85.234375 -130.992188 90.046875 -127.140625 C 94.867188 -123.285156 98.628906 -119.175781 101.328125 -114.8125 C 104.023438 -110.445312 105.375 -106.335938 105.375 -102.484375 C 105.375 -94.648438 103.671875 -87.425781 100.265625 -80.8125 C 96.867188 -74.195312 92.441406 -68.191406 86.984375 -62.796875 C 81.523438 -57.398438 75.644531 -52.585938 69.34375 -48.359375 C 66.132812 -46.171875 63.179688 -44.625 60.484375 -43.71875 C 57.785156 -42.820312 55.347656 -42.375 53.171875 -42.375 C 50.984375 -42.375 49.085938 -42.757812 47.484375 -43.53125 C 45.878906 -44.300781 44.5625 -45.265625 43.53125 -46.421875 C 42.894531 -39.359375 42.253906 -32.070312 41.609375 -24.5625 C 40.960938 -17.050781 40.382812 -8.992188 39.875 -0.390625 C 39.75 0.765625 39.300781 1.535156 38.53125 1.921875 C 37.757812 2.304688 36.796875 2.5 35.640625 2.5 Z M 47.203125 -87.84375 C 46.816406 -82.707031 46.394531 -77.726562 45.9375 -72.90625 C 45.488281 -68.09375 45.007812 -63.25 44.5 -58.375 C 56.0625 -66.457031 64.28125 -74.476562 69.15625 -82.4375 C 74.039062 -90.40625 76.484375 -97.472656 76.484375 -103.640625 C 76.484375 -108.898438 75.132812 -113.140625 72.4375 -116.359375 C 70.507812 -116.359375 68.644531 -116.390625 66.84375 -116.453125 C 65.050781 -116.515625 63.316406 -116.546875 61.640625 -116.546875 C 57.785156 -116.546875 54.253906 -116.515625 51.046875 -116.453125 C 47.835938 -116.390625 44.820312 -116.289062 42 -116.15625 C 43.789062 -114.101562 45.164062 -111.40625 46.125 -108.0625 C 47.09375 -104.726562 47.578125 -100.492188 47.578125 -95.359375 C 47.578125 -94.203125 47.546875 -93.015625 47.484375 -91.796875 C 47.421875 -90.578125 47.328125 -89.257812 47.203125 -87.84375 Z M 47.203125 -87.84375 "/></g></g><g style="fill:#145e82;fill-opacity:1;"><g transform="translate(370.87677, 409.052622)"><path style="stroke:none" d="M 48.15625 2.5 C 44.5625 2.5 40.675781 2.175781 36.5 1.53125 C 32.332031 0.894531 28.382812 -0.445312 24.65625 -2.5 C 20.9375 -4.5625 17.984375 -7.644531 15.796875 -11.75 C 12.328125 -14.0625 9.691406 -17.816406 7.890625 -23.015625 C 6.097656 -28.222656 5.203125 -34.359375 5.203125 -41.421875 C 5.203125 -49.640625 6.066406 -58.304688 7.796875 -67.421875 C 9.535156 -76.546875 12.039062 -85.441406 15.3125 -94.109375 C 18.59375 -102.773438 22.578125 -110.609375 27.265625 -117.609375 C 31.953125 -124.609375 37.28125 -130.191406 43.25 -134.359375 C 49.21875 -138.535156 55.734375 -140.625 62.796875 -140.625 C 67.035156 -140.625 70.726562 -140.140625 73.875 -139.171875 C 77.019531 -138.210938 79.878906 -135.875 82.453125 -132.15625 C 87.585938 -130.476562 91.179688 -127.457031 93.234375 -123.09375 C 95.285156 -118.726562 96.1875 -114.300781 95.9375 -109.8125 C 95.8125 -105.570312 94.59375 -100.722656 92.28125 -95.265625 C 89.96875 -89.804688 87.847656 -84.378906 85.921875 -78.984375 C 85.398438 -77.703125 84.847656 -76.675781 84.265625 -75.90625 C 83.691406 -75.132812 82.703125 -74.75 81.296875 -74.75 C 78.335938 -74.75 75.476562 -75.773438 72.71875 -77.828125 C 69.957031 -79.878906 67.707031 -82.445312 65.96875 -85.53125 C 64.238281 -88.613281 63.375 -91.632812 63.375 -94.59375 C 63.375 -97.925781 64.046875 -102.0625 65.390625 -107 C 66.742188 -111.945312 68.640625 -116.15625 71.078125 -119.625 C 66.972656 -118.988281 63.085938 -116.675781 59.421875 -112.6875 C 55.765625 -108.707031 52.425781 -103.472656 49.40625 -96.984375 C 46.394531 -90.503906 43.796875 -83.28125 41.609375 -75.3125 C 39.421875 -67.351562 37.71875 -59.003906 36.5 -50.265625 C 35.28125 -41.535156 34.671875 -33 34.671875 -24.65625 C 41.097656 -24.65625 46.847656 -25.617188 51.921875 -27.546875 C 56.992188 -29.472656 61.453125 -31.976562 65.296875 -35.0625 C 69.148438 -38.144531 72.519531 -41.421875 75.40625 -44.890625 C 78.300781 -48.359375 80.90625 -51.566406 83.21875 -54.515625 C 88.488281 -53.617188 91.125 -49.570312 91.125 -42.375 C 91.125 -34.539062 89.195312 -27.1875 85.34375 -20.3125 C 81.488281 -13.445312 76.316406 -7.925781 69.828125 -3.75 C 63.347656 0.414062 56.125 2.5 48.15625 2.5 Z M 48.15625 2.5 "/></g></g><g style="fill:#145e82;fill-opacity:1;"><g transform="translate(467.568518, 409.052622)"><path style="stroke:none" d="M 98.828125 2.703125 C 96.003906 2.703125 93.46875 2.28125 91.21875 1.4375 C 88.96875 0.601562 86.554688 -0.898438 83.984375 -3.078125 C 81.160156 -4.234375 78.753906 -5.9375 76.765625 -8.1875 C 74.773438 -10.4375 73.007812 -12.972656 71.46875 -15.796875 L 37.953125 -74.9375 L 37.5625 -74.9375 C 36.40625 -67.875 35.410156 -59.972656 34.578125 -51.234375 C 33.742188 -42.503906 33.035156 -33.867188 32.453125 -25.328125 C 31.878906 -16.785156 31.460938 -9.304688 31.203125 -2.890625 C 31.203125 -0.960938 29.984375 0 27.546875 0 C 22.023438 0 17.625 -2.34375 14.34375 -7.03125 C 11.070312 -11.71875 9.4375 -18.109375 9.4375 -26.203125 C 9.4375 -30.953125 9.753906 -38.910156 10.390625 -50.078125 C 11.035156 -61.253906 12.128906 -75.191406 13.671875 -91.890625 C 14.316406 -99.847656 15.148438 -105.492188 16.171875 -108.828125 C 17.203125 -112.171875 18.941406 -113.84375 21.390625 -113.84375 L 9.4375 -133.890625 C 8.925781 -134.785156 8.671875 -135.75 8.671875 -136.78125 C 8.671875 -139.21875 10.210938 -140.4375 13.296875 -140.4375 C 17.535156 -140.4375 22.445312 -138.957031 28.03125 -136 C 33.613281 -133.050781 38.203125 -128.300781 41.796875 -121.75 L 80.90625 -48.734375 L 81.296875 -48.734375 C 81.929688 -56.828125 82.570312 -65.175781 83.21875 -73.78125 C 83.863281 -82.382812 84.503906 -90.765625 85.140625 -98.921875 C 85.785156 -107.078125 86.363281 -114.492188 86.875 -121.171875 C 87.394531 -127.847656 87.847656 -133.242188 88.234375 -137.359375 C 88.484375 -138.378906 89.25 -139.113281 90.53125 -139.5625 C 91.820312 -140.019531 93.300781 -140.25 94.96875 -140.25 C 97.925781 -140.25 100.6875 -139.476562 103.25 -137.9375 C 105.820312 -136.394531 107.941406 -133.789062 109.609375 -130.125 C 111.273438 -126.46875 112.109375 -121.425781 112.109375 -115 C 112.109375 -110.507812 111.753906 -104.25 111.046875 -96.21875 C 110.347656 -88.195312 109.515625 -79.078125 108.546875 -68.859375 C 107.585938 -58.648438 106.753906 -47.863281 106.046875 -36.5 C 105.335938 -25.132812 104.984375 -13.800781 104.984375 -2.5 C 104.984375 -0.832031 104.40625 0.445312 103.25 1.34375 C 102.09375 2.25 100.617188 2.703125 98.828125 2.703125 Z M 98.828125 2.703125 "/></g></g><g style="fill:#2a7794;fill-opacity:1;"><g transform="translate(276.1787, 445.140374)"><path style="stroke:none" d="M 10.671875 -20.859375 C 12.359375 -20.859375 13.804688 -20.519531 15.015625 -19.84375 C 16.222656 -19.164062 17.15625 -18.265625 17.8125 -17.140625 C 18.46875 -16.023438 18.796875 -14.800781 18.796875 -13.46875 C 18.796875 -12.132812 18.46875 -10.90625 17.8125 -9.78125 C 17.15625 -8.664062 16.222656 -7.765625 15.015625 -7.078125 C 13.804688 -6.390625 12.359375 -6.046875 10.671875 -6.046875 L 7.8125 -6.046875 L 7.8125 0 L 2.078125 0 L 2.078125 -20.859375 Z M 10.453125 -10.875 C 11.691406 -10.875 12.53125 -11.140625 12.96875 -11.671875 C 13.414062 -12.210938 13.640625 -12.8125 13.640625 -13.46875 C 13.640625 -14.125 13.414062 -14.710938 12.96875 -15.234375 C 12.53125 -15.765625 11.691406 -16.03125 10.453125 -16.03125 L 7.8125 -16.03125 L 7.8125 -10.875 Z M 10.453125 -10.875 "/></g></g><g style="fill:#2a7794;fill-opacity:1;"><g transform="translate(295.871258, 445.140374)"><path style="stroke:none" d="M 7.984375 -14.78125 C 8.773438 -14.78125 9.550781 -14.691406 10.3125 -14.515625 C 11.082031 -14.347656 11.78125 -14.050781 12.40625 -13.625 C 13.03125 -13.195312 13.523438 -12.625 13.890625 -11.90625 C 14.265625 -11.195312 14.453125 -10.285156 14.453125 -9.171875 C 14.453125 -8.117188 14.453125 -7.050781 14.453125 -5.96875 C 14.453125 -4.882812 14.453125 -3.890625 14.453125 -2.984375 C 14.453125 -2.085938 14.453125 -1.363281 14.453125 -0.8125 C 14.453125 -0.269531 14.453125 0 14.453125 0 L 9.453125 0 L 9.453125 -1.40625 C 8.535156 -0.164062 7.132812 0.453125 5.25 0.453125 C 5.050781 0.453125 4.722656 0.398438 4.265625 0.296875 C 3.804688 0.203125 3.320312 0.0078125 2.8125 -0.28125 C 2.3125 -0.570312 1.878906 -0.992188 1.515625 -1.546875 C 1.160156 -2.109375 0.960938 -2.84375 0.921875 -3.75 C 0.898438 -4.78125 1.082031 -5.632812 1.46875 -6.3125 C 1.863281 -6.988281 2.378906 -7.507812 3.015625 -7.875 C 3.648438 -8.25 4.3125 -8.492188 5 -8.609375 C 5.457031 -8.691406 5.960938 -8.753906 6.515625 -8.796875 C 7.078125 -8.847656 7.617188 -8.894531 8.140625 -8.9375 C 8.671875 -8.976562 9.109375 -9 9.453125 -9 C 9.453125 -9.195312 9.398438 -9.441406 9.296875 -9.734375 C 9.191406 -10.035156 8.988281 -10.300781 8.6875 -10.53125 C 8.394531 -10.757812 7.953125 -10.875 7.359375 -10.875 C 6.390625 -10.875 5.5 -10.722656 4.6875 -10.421875 C 3.882812 -10.128906 3.316406 -9.894531 2.984375 -9.71875 L 1.609375 -12.96875 C 1.960938 -13.21875 2.460938 -13.484375 3.109375 -13.765625 C 3.753906 -14.046875 4.492188 -14.285156 5.328125 -14.484375 C 6.160156 -14.679688 7.046875 -14.78125 7.984375 -14.78125 Z M 7.59375 -3.3125 C 8.3125 -3.3125 8.800781 -3.488281 9.0625 -3.84375 C 9.320312 -4.195312 9.453125 -4.523438 9.453125 -4.828125 C 9.453125 -4.984375 9.453125 -5.179688 9.453125 -5.421875 C 9.453125 -5.660156 9.453125 -5.878906 9.453125 -6.078125 C 9.453125 -6.273438 9.453125 -6.375 9.453125 -6.375 C 9.453125 -6.375 9.269531 -6.375 8.90625 -6.375 C 8.550781 -6.375 8.148438 -6.335938 7.703125 -6.265625 C 7.253906 -6.203125 6.878906 -6.0625 6.578125 -5.84375 C 6.222656 -5.601562 6.023438 -5.28125 5.984375 -4.875 C 5.941406 -4.46875 6.054688 -4.101562 6.328125 -3.78125 C 6.597656 -3.46875 7.019531 -3.3125 7.59375 -3.3125 Z M 7.59375 -3.3125 "/></g></g><g style="fill:#2a7794;fill-opacity:1;"><g transform="translate(311.810043, 445.140374)"><path style="stroke:none" d="M 8.875 -4.046875 C 9.507812 -4.023438 10.078125 -4.128906 10.578125 -4.359375 C 11.078125 -4.585938 11.535156 -4.875 11.953125 -5.21875 L 14.59375 -1.84375 C 13.90625 -1.132812 13.046875 -0.570312 12.015625 -0.15625 C 10.992188 0.25 9.945312 0.453125 8.875 0.453125 C 7.382812 0.453125 6.039062 0.109375 4.84375 -0.578125 C 3.644531 -1.265625 2.6875 -2.179688 1.96875 -3.328125 C 1.25 -4.484375 0.890625 -5.757812 0.890625 -7.15625 C 0.890625 -8.5625 1.238281 -9.835938 1.9375 -10.984375 C 2.632812 -12.140625 3.582031 -13.0625 4.78125 -13.75 C 5.976562 -14.4375 7.34375 -14.78125 8.875 -14.78125 C 9.945312 -14.78125 10.988281 -14.570312 12 -14.15625 C 13.019531 -13.738281 13.882812 -13.179688 14.59375 -12.484375 L 11.765625 -9.203125 C 11.304688 -9.546875 10.847656 -9.816406 10.390625 -10.015625 C 9.941406 -10.210938 9.4375 -10.289062 8.875 -10.25 C 8.0625 -10.226562 7.320312 -9.960938 6.65625 -9.453125 C 5.988281 -8.953125 5.65625 -8.1875 5.65625 -7.15625 C 5.65625 -6.21875 5.988281 -5.472656 6.65625 -4.921875 C 7.320312 -4.378906 8.0625 -4.085938 8.875 -4.046875 Z M 8.875 -4.046875 "/></g></g><g style="fill:#2a7794;fill-opacity:1;"><g transform="translate(327.004014, 445.140374)"><path style="stroke:none" d="M 6.46875 -18.4375 C 6.46875 -17.769531 6.226562 -17.191406 5.75 -16.703125 C 5.269531 -16.210938 4.6875 -15.96875 4 -15.96875 C 3.320312 -15.96875 2.738281 -16.210938 2.25 -16.703125 C 1.757812 -17.191406 1.515625 -17.769531 1.515625 -18.4375 C 1.515625 -19.132812 1.757812 -19.722656 2.25 -20.203125 C 2.738281 -20.679688 3.320312 -20.921875 4 -20.921875 C 4.6875 -20.921875 5.269531 -20.679688 5.75 -20.203125 C 6.226562 -19.722656 6.46875 -19.132812 6.46875 -18.4375 Z M 6.5 -14.296875 L 6.5 0 L 1.484375 0 L 1.484375 -14.296875 Z M 6.5 -14.296875 "/></g></g><g style="fill:#2a7794;fill-opacity:1;"><g transform="translate(334.98831, 445.140374)"><path style="stroke:none" d="M 12.015625 -16.921875 C 11.585938 -17.078125 11.117188 -17.195312 10.609375 -17.28125 C 10.109375 -17.363281 9.632812 -17.347656 9.1875 -17.234375 C 8.738281 -17.128906 8.363281 -16.875 8.0625 -16.46875 C 7.769531 -16.0625 7.625 -15.4375 7.625 -14.59375 C 7.625 -14.582031 7.625 -14.550781 7.625 -14.5 C 7.625 -14.445312 7.625 -14.378906 7.625 -14.296875 L 11.328125 -14.296875 L 11.328125 -9.796875 L 7.625 -9.796875 C 7.625 -8.722656 7.625 -7.613281 7.625 -6.46875 C 7.625 -5.332031 7.625 -4.269531 7.625 -3.28125 C 7.625 -2.300781 7.625 -1.507812 7.625 -0.90625 C 7.625 -0.300781 7.625 0 7.625 0 L 2.59375 0 C 2.59375 0 2.59375 -0.300781 2.59375 -0.90625 C 2.59375 -1.507812 2.59375 -2.296875 2.59375 -3.265625 C 2.59375 -4.242188 2.59375 -5.304688 2.59375 -6.453125 C 2.59375 -7.609375 2.59375 -8.722656 2.59375 -9.796875 L 0.59375 -9.796875 L 0.59375 -14.296875 L 2.59375 -14.296875 C 2.59375 -14.359375 2.59375 -14.414062 2.59375 -14.46875 C 2.59375 -14.519531 2.59375 -14.5625 2.59375 -14.59375 C 2.59375 -15.59375 2.679688 -16.535156 2.859375 -17.421875 C 3.035156 -18.304688 3.351562 -19.097656 3.8125 -19.796875 C 4.269531 -20.503906 4.925781 -21.054688 5.78125 -21.453125 C 6.632812 -21.847656 7.726562 -22.046875 9.0625 -22.046875 C 10.113281 -22.046875 10.988281 -21.9375 11.6875 -21.71875 C 12.394531 -21.5 12.878906 -21.34375 13.140625 -21.25 Z M 12.015625 -16.921875 "/></g></g><g style="fill:#2a7794;fill-opacity:1;"><g transform="translate(346.637025, 445.140374)"><path style="stroke:none" d="M 6.46875 -18.4375 C 6.46875 -17.769531 6.226562 -17.191406 5.75 -16.703125 C 5.269531 -16.210938 4.6875 -15.96875 4 -15.96875 C 3.320312 -15.96875 2.738281 -16.210938 2.25 -16.703125 C 1.757812 -17.191406 1.515625 -17.769531 1.515625 -18.4375 C 1.515625 -19.132812 1.757812 -19.722656 2.25 -20.203125 C 2.738281 -20.679688 3.320312 -20.921875 4 -20.921875 C 4.6875 -20.921875 5.269531 -20.679688 5.75 -20.203125 C 6.226562 -19.722656 6.46875 -19.132812 6.46875 -18.4375 Z M 6.5 -14.296875 L 6.5 0 L 1.484375 0 L 1.484375 -14.296875 Z M 6.5 -14.296875 "/></g></g><g style="fill:#2a7794;fill-opacity:1;"><g transform="translate(354.621321, 445.140374)"><path style="stroke:none" d="M 8.875 -4.046875 C 9.507812 -4.023438 10.078125 -4.128906 10.578125 -4.359375 C 11.078125 -4.585938 11.535156 -4.875 11.953125 -5.21875 L 14.59375 -1.84375 C 13.90625 -1.132812 13.046875 -0.570312 12.015625 -0.15625 C 10.992188 0.25 9.945312 0.453125 8.875 0.453125 C 7.382812 0.453125 6.039062 0.109375 4.84375 -0.578125 C 3.644531 -1.265625 2.6875 -2.179688 1.96875 -3.328125 C 1.25 -4.484375 0.890625 -5.757812 0.890625 -7.15625 C 0.890625 -8.5625 1.238281 -9.835938 1.9375 -10.984375 C 2.632812 -12.140625 3.582031 -13.0625 4.78125 -13.75 C 5.976562 -14.4375 7.34375 -14.78125 8.875 -14.78125 C 9.945312 -14.78125 10.988281 -14.570312 12 -14.15625 C 13.019531 -13.738281 13.882812 -13.179688 14.59375 -12.484375 L 11.765625 -9.203125 C 11.304688 -9.546875 10.847656 -9.816406 10.390625 -10.015625 C 9.941406 -10.210938 9.4375 -10.289062 8.875 -10.25 C 8.0625 -10.226562 7.320312 -9.960938 6.65625 -9.453125 C 5.988281 -8.953125 5.65625 -8.1875 5.65625 -7.15625 C 5.65625 -6.21875 5.988281 -5.472656 6.65625 -4.921875 C 7.320312 -4.378906 8.0625 -4.085938 8.875 -4.046875 Z M 8.875 -4.046875 "/></g></g><g style="fill:#2a7794;fill-opacity:1;"><g transform="translate(369.815293, 445.140374)"><path style="stroke:none" d="M 12.75 -4.640625 C 13.53125 -4.640625 14.273438 -4.773438 14.984375 -5.046875 C 15.703125 -5.316406 16.378906 -5.679688 17.015625 -6.140625 L 19.8125 -2.140625 C 18.78125 -1.347656 17.679688 -0.71875 16.515625 -0.25 C 15.359375 0.21875 14.101562 0.453125 12.75 0.453125 C 11.0625 0.453125 9.5 0.171875 8.0625 -0.390625 C 6.625 -0.960938 5.367188 -1.742188 4.296875 -2.734375 C 3.222656 -3.734375 2.382812 -4.890625 1.78125 -6.203125 C 1.1875 -7.515625 0.890625 -8.921875 0.890625 -10.421875 C 0.890625 -11.929688 1.1875 -13.34375 1.78125 -14.65625 C 2.382812 -15.96875 3.222656 -17.125 4.296875 -18.125 C 5.367188 -19.132812 6.625 -19.921875 8.0625 -20.484375 C 9.5 -21.046875 11.0625 -21.328125 12.75 -21.328125 C 14.101562 -21.328125 15.359375 -21.09375 16.515625 -20.625 C 17.679688 -20.164062 18.78125 -19.53125 19.8125 -18.71875 L 17.015625 -14.75 C 15.703125 -15.71875 14.28125 -16.203125 12.75 -16.203125 C 11.5625 -16.203125 10.492188 -15.941406 9.546875 -15.421875 C 8.609375 -14.910156 7.859375 -14.222656 7.296875 -13.359375 C 6.742188 -12.492188 6.46875 -11.515625 6.46875 -10.421875 C 6.46875 -9.347656 6.742188 -8.375 7.296875 -7.5 C 7.859375 -6.632812 8.609375 -5.941406 9.546875 -5.421875 C 10.492188 -4.898438 11.5625 -4.640625 12.75 -4.640625 Z M 12.75 -4.640625 "/></g></g><g style="fill:#2a7794;fill-opacity:1;"><g transform="translate(390.520796, 445.140374)"><path style="stroke:none" d="M 8.640625 -14.78125 C 9.691406 -14.78125 10.679688 -14.582031 11.609375 -14.1875 C 12.546875 -13.789062 13.375 -13.242188 14.09375 -12.546875 C 14.8125 -11.847656 15.375 -11.035156 15.78125 -10.109375 C 16.1875 -9.191406 16.390625 -8.207031 16.390625 -7.15625 C 16.390625 -6.101562 16.1875 -5.117188 15.78125 -4.203125 C 15.375 -3.285156 14.8125 -2.476562 14.09375 -1.78125 C 13.375 -1.09375 12.546875 -0.546875 11.609375 -0.140625 C 10.679688 0.253906 9.691406 0.453125 8.640625 0.453125 C 7.585938 0.453125 6.59375 0.253906 5.65625 -0.140625 C 4.726562 -0.546875 3.90625 -1.09375 3.1875 -1.78125 C 2.46875 -2.476562 1.90625 -3.285156 1.5 -4.203125 C 1.09375 -5.117188 0.890625 -6.101562 0.890625 -7.15625 C 0.890625 -8.207031 1.09375 -9.191406 1.5 -10.109375 C 1.90625 -11.035156 2.46875 -11.847656 3.1875 -12.546875 C 3.90625 -13.242188 4.726562 -13.789062 5.65625 -14.1875 C 6.59375 -14.582031 7.585938 -14.78125 8.640625 -14.78125 Z M 8.640625 -4.109375 C 9.492188 -4.109375 10.21875 -4.40625 10.8125 -5 C 11.40625 -5.601562 11.703125 -6.320312 11.703125 -7.15625 C 11.703125 -8.007812 11.40625 -8.734375 10.8125 -9.328125 C 10.21875 -9.921875 9.492188 -10.21875 8.640625 -10.21875 C 7.785156 -10.21875 7.0625 -9.921875 6.46875 -9.328125 C 5.875 -8.734375 5.578125 -8.007812 5.578125 -7.15625 C 5.578125 -6.320312 5.875 -5.601562 6.46875 -5 C 7.0625 -4.40625 7.785156 -4.109375 8.640625 -4.109375 Z M 8.640625 -4.109375 "/></g></g><g style="fill:#2a7794;fill-opacity:1;"><g transform="translate(407.800204, 445.140374)"><path style="stroke:none" d="M 18.75 -14.78125 C 20.570312 -14.78125 21.859375 -14.28125 22.609375 -13.28125 C 23.367188 -12.289062 23.75 -10.921875 23.75 -9.171875 L 23.75 0 L 18.75 0 L 18.75 -8.546875 C 18.75 -9.359375 18.578125 -9.9375 18.234375 -10.28125 C 17.898438 -10.632812 17.515625 -10.8125 17.078125 -10.8125 C 16.617188 -10.8125 16.191406 -10.644531 15.796875 -10.3125 C 15.398438 -9.988281 15.179688 -9.429688 15.140625 -8.640625 L 15.140625 0 L 10.125 0 L 10.125 -8.546875 C 10.125 -9.359375 9.957031 -9.9375 9.625 -10.28125 C 9.289062 -10.632812 8.90625 -10.8125 8.46875 -10.8125 C 8.007812 -10.8125 7.578125 -10.644531 7.171875 -10.3125 C 6.765625 -9.988281 6.550781 -9.429688 6.53125 -8.640625 L 6.53125 0 L 1.484375 0 L 1.484375 -14.296875 L 6.53125 -14.296875 L 6.53125 -12.9375 C 6.925781 -13.425781 7.441406 -13.851562 8.078125 -14.21875 C 8.710938 -14.59375 9.394531 -14.78125 10.125 -14.78125 C 11.300781 -14.78125 12.210938 -14.566406 12.859375 -14.140625 C 13.503906 -13.710938 14.035156 -13.109375 14.453125 -12.328125 C 14.691406 -12.734375 15.054688 -13.125 15.546875 -13.5 C 16.046875 -13.875 16.582031 -14.179688 17.15625 -14.421875 C 17.738281 -14.660156 18.269531 -14.78125 18.75 -14.78125 Z M 18.75 -14.78125 "/></g></g><g style="fill:#2a7794;fill-opacity:1;"><g transform="translate(433.034102, 445.140374)"><path style="stroke:none" d=""/></g></g><g style="fill:#2a7794;fill-opacity:1;"><g transform="translate(440.720459, 445.140374)"><path style="stroke:none" d="M 2.078125 -20.859375 L 7.15625 -20.859375 L 14.390625 -9.796875 L 14.390625 -20.859375 L 20.109375 -20.859375 L 20.109375 0 L 15.046875 0 L 7.8125 -11.078125 L 7.8125 0 L 2.078125 0 Z M 2.078125 -20.859375 "/></g></g><g style="fill:#2a7794;fill-opacity:1;"><g transform="translate(462.915555, 445.140374)"><path style="stroke:none" d="M 14.890625 -5.390625 L 5.921875 -5.390625 C 6.160156 -4.859375 6.503906 -4.429688 6.953125 -4.109375 C 7.398438 -3.796875 7.875 -3.597656 8.375 -3.515625 C 9.050781 -3.410156 9.65625 -3.421875 10.1875 -3.546875 C 10.726562 -3.679688 11.179688 -3.859375 11.546875 -4.078125 C 11.910156 -4.296875 12.15625 -4.484375 12.28125 -4.640625 L 14.21875 -1.9375 C 13.300781 -1.101562 12.390625 -0.492188 11.484375 -0.109375 C 10.578125 0.265625 9.453125 0.453125 8.109375 0.453125 C 6.816406 0.453125 5.617188 0.109375 4.515625 -0.578125 C 3.410156 -1.265625 2.53125 -2.179688 1.875 -3.328125 C 1.21875 -4.484375 0.890625 -5.757812 0.890625 -7.15625 C 0.890625 -8.5625 1.21875 -9.835938 1.875 -10.984375 C 2.53125 -12.140625 3.410156 -13.0625 4.515625 -13.75 C 5.617188 -14.4375 6.816406 -14.78125 8.109375 -14.78125 C 9.421875 -14.78125 10.601562 -14.460938 11.65625 -13.828125 C 12.707031 -13.191406 13.535156 -12.328125 14.140625 -11.234375 C 14.742188 -10.140625 15.046875 -8.890625 15.046875 -7.484375 C 15.046875 -7.117188 15.035156 -6.765625 15.015625 -6.421875 C 14.992188 -6.078125 14.953125 -5.734375 14.890625 -5.390625 Z M 8.109375 -10.515625 C 7.503906 -10.515625 6.976562 -10.332031 6.53125 -9.96875 C 6.09375 -9.601562 5.785156 -9.09375 5.609375 -8.4375 L 10.734375 -8.4375 C 10.585938 -9.125 10.273438 -9.640625 9.796875 -9.984375 C 9.328125 -10.335938 8.765625 -10.515625 8.109375 -10.515625 Z M 8.109375 -10.515625 "/></g></g><g style="fill:#2a7794;fill-opacity:1;"><g transform="translate(478.85434, 445.140374)"><path style="stroke:none" d="M 10.75 -4.640625 L 11.859375 -0.53125 C 11.578125 -0.351562 11.046875 -0.144531 10.265625 0.09375 C 9.484375 0.332031 8.566406 0.453125 7.515625 0.453125 C 6.359375 0.453125 5.429688 0.253906 4.734375 -0.140625 C 4.035156 -0.546875 3.515625 -1.097656 3.171875 -1.796875 C 2.828125 -2.503906 2.59375 -3.304688 2.46875 -4.203125 C 2.351562 -5.097656 2.296875 -6.03125 2.296875 -7 C 2.296875 -7.28125 2.296875 -7.660156 2.296875 -8.140625 C 2.296875 -8.628906 2.296875 -9.179688 2.296875 -9.796875 L 0.296875 -9.796875 L 0.296875 -14.296875 L 2.296875 -14.296875 C 2.296875 -15.171875 2.296875 -15.898438 2.296875 -16.484375 C 2.296875 -17.078125 2.296875 -17.375 2.296875 -17.375 L 7.328125 -18 C 7.328125 -18 7.328125 -17.632812 7.328125 -16.90625 C 7.328125 -16.1875 7.328125 -15.316406 7.328125 -14.296875 L 11.03125 -14.296875 L 11.03125 -9.796875 L 7.328125 -9.796875 C 7.328125 -9.128906 7.328125 -8.550781 7.328125 -8.0625 C 7.328125 -7.570312 7.328125 -7.257812 7.328125 -7.125 C 7.328125 -5.769531 7.628906 -4.890625 8.234375 -4.484375 C 8.835938 -4.078125 9.675781 -4.128906 10.75 -4.640625 Z M 10.75 -4.640625 "/></g></g><g style="fill:#2a7794;fill-opacity:1;"><g transform="translate(491.307449, 445.140374)"><path style="stroke:none" d="M 18.890625 -14.296875 L 24.375 -14.296875 L 19.703125 0 L 14.890625 0 L 12.328125 -7.390625 L 9.765625 0 L 4.96875 0 L 0.296875 -14.296875 L 5.78125 -14.296875 L 7.59375 -6.46875 L 9.921875 -14.296875 L 14.78125 -14.296875 L 17.078125 -6.46875 Z M 18.890625 -14.296875 "/></g></g><g style="fill:#2a7794;fill-opacity:1;"><g transform="translate(515.97531, 445.140374)"><path style="stroke:none" d="M 8.640625 -14.78125 C 9.691406 -14.78125 10.679688 -14.582031 11.609375 -14.1875 C 12.546875 -13.789062 13.375 -13.242188 14.09375 -12.546875 C 14.8125 -11.847656 15.375 -11.035156 15.78125 -10.109375 C 16.1875 -9.191406 16.390625 -8.207031 16.390625 -7.15625 C 16.390625 -6.101562 16.1875 -5.117188 15.78125 -4.203125 C 15.375 -3.285156 14.8125 -2.476562 14.09375 -1.78125 C 13.375 -1.09375 12.546875 -0.546875 11.609375 -0.140625 C 10.679688 0.253906 9.691406 0.453125 8.640625 0.453125 C 7.585938 0.453125 6.59375 0.253906 5.65625 -0.140625 C 4.726562 -0.546875 3.90625 -1.09375 3.1875 -1.78125 C 2.46875 -2.476562 1.90625 -3.285156 1.5 -4.203125 C 1.09375 -5.117188 0.890625 -6.101562 0.890625 -7.15625 C 0.890625 -8.207031 1.09375 -9.191406 1.5 -10.109375 C 1.90625 -11.035156 2.46875 -11.847656 3.1875 -12.546875 C 3.90625 -13.242188 4.726562 -13.789062 5.65625 -14.1875 C 6.59375 -14.582031 7.585938 -14.78125 8.640625 -14.78125 Z M 8.640625 -4.109375 C 9.492188 -4.109375 10.21875 -4.40625 10.8125 -5 C 11.40625 -5.601562 11.703125 -6.320312 11.703125 -7.15625 C 11.703125 -8.007812 11.40625 -8.734375 10.8125 -9.328125 C 10.21875 -9.921875 9.492188 -10.21875 8.640625 -10.21875 C 7.785156 -10.21875 7.0625 -9.921875 6.46875 -9.328125 C 5.875 -8.734375 5.578125 -8.007812 5.578125 -7.15625 C 5.578125 -6.320312 5.875 -5.601562 6.46875 -5 C 7.0625 -4.40625 7.785156 -4.109375 8.640625 -4.109375 Z M 8.640625 -4.109375 "/></g></g><g style="fill:#2a7794;fill-opacity:1;"><g transform="translate(533.254718, 445.140374)"><path style="stroke:none" d="M 10.640625 -14.78125 C 11.171875 -14.78125 11.691406 -14.71875 12.203125 -14.59375 C 12.710938 -14.476562 13.054688 -14.378906 13.234375 -14.296875 L 12.03125 -9.0625 C 11.675781 -9.21875 11.273438 -9.375 10.828125 -9.53125 C 10.378906 -9.6875 9.8125 -9.75 9.125 -9.71875 C 8.78125 -9.695312 8.40625 -9.597656 8 -9.421875 C 7.59375 -9.253906 7.242188 -8.960938 6.953125 -8.546875 C 6.671875 -8.128906 6.53125 -7.535156 6.53125 -6.765625 C 6.53125 -6.628906 6.53125 -6.304688 6.53125 -5.796875 C 6.53125 -5.285156 6.53125 -4.707031 6.53125 -4.0625 C 6.53125 -3.414062 6.53125 -2.78125 6.53125 -2.15625 C 6.53125 -1.53125 6.53125 -1.015625 6.53125 -0.609375 C 6.53125 -0.203125 6.53125 0 6.53125 0 L 1.484375 0 L 1.484375 -14.296875 L 6.53125 -14.296875 L 6.53125 -12.9375 C 6.6875 -13.15625 6.96875 -13.40625 7.375 -13.6875 C 7.78125 -13.976562 8.269531 -14.234375 8.84375 -14.453125 C 9.425781 -14.671875 10.023438 -14.78125 10.640625 -14.78125 Z M 10.640625 -14.78125 "/></g></g><g style="fill:#2a7794;fill-opacity:1;"><g transform="translate(547.078259, 445.140374)"><path style="stroke:none" d="M 15.96875 0 L 10.484375 0 L 6.5 -6.40625 L 6.5 0 L 1.484375 0 L 1.484375 -20.859375 L 6.5 -20.859375 L 6.5 -8.21875 L 9.921875 -14.296875 L 15.40625 -14.296875 L 11.265625 -7.359375 Z M 15.96875 0 "/></g></g><g style="fill:#2a7794;fill-opacity:1;"><g transform="translate(562.748912, 445.140374)"><path style="stroke:none" d="M 6.765625 -10.25 C 6.765625 -9.914062 6.921875 -9.644531 7.234375 -9.4375 C 7.554688 -9.226562 7.957031 -9.039062 8.4375 -8.875 C 8.925781 -8.71875 9.441406 -8.535156 9.984375 -8.328125 C 10.535156 -8.117188 11.054688 -7.847656 11.546875 -7.515625 C 12.035156 -7.191406 12.429688 -6.753906 12.734375 -6.203125 C 13.046875 -5.660156 13.203125 -4.972656 13.203125 -4.140625 C 13.179688 -2.804688 12.664062 -1.707031 11.65625 -0.84375 C 10.65625 0.0195312 9.113281 0.453125 7.03125 0.453125 C 6.414062 0.453125 5.738281 0.367188 5 0.203125 C 4.269531 0.046875 3.546875 -0.175781 2.828125 -0.46875 C 2.117188 -0.769531 1.472656 -1.128906 0.890625 -1.546875 L 2.40625 -4.859375 C 2.96875 -4.441406 3.570312 -4.101562 4.21875 -3.84375 C 4.863281 -3.582031 5.476562 -3.40625 6.0625 -3.3125 C 6.644531 -3.226562 7.128906 -3.238281 7.515625 -3.34375 C 7.910156 -3.457031 8.128906 -3.664062 8.171875 -3.96875 C 8.203125 -4.34375 8.0625 -4.644531 7.75 -4.875 C 7.445312 -5.101562 7.039062 -5.304688 6.53125 -5.484375 C 6.03125 -5.660156 5.488281 -5.863281 4.90625 -6.09375 C 4.332031 -6.320312 3.789062 -6.625 3.28125 -7 C 2.78125 -7.375 2.378906 -7.867188 2.078125 -8.484375 C 1.785156 -9.109375 1.660156 -9.90625 1.703125 -10.875 C 1.773438 -12.164062 2.363281 -13.175781 3.46875 -13.90625 C 4.570312 -14.644531 6.15625 -14.9375 8.21875 -14.78125 C 8.914062 -14.738281 9.609375 -14.632812 10.296875 -14.46875 C 10.984375 -14.300781 11.566406 -14.125 12.046875 -13.9375 C 12.535156 -13.757812 12.832031 -13.625 12.9375 -13.53125 L 11.46875 -10.1875 C 11.007812 -10.550781 10.503906 -10.816406 9.953125 -10.984375 C 9.410156 -11.148438 8.894531 -11.226562 8.40625 -11.21875 C 7.925781 -11.207031 7.53125 -11.125 7.21875 -10.96875 C 6.914062 -10.8125 6.765625 -10.570312 6.765625 -10.25 Z M 6.765625 -10.25 "/></g></g></g></svg>