<svg xmlns="http://www.w3.org/2000/svg" xmlns:xlink="http://www.w3.org/1999/xlink" width="500" zoomAndPan="magnify" viewBox="0 0 375 225" height="300" preserveAspectRatio="xMidYMid meet" version="1.2"><defs><clipPath id="199d25be66"><path d="M 0.164062 63.582031 L 263.441406 63.582031 L 263.441406 202.203125 L 0.164062 202.203125 Z M 0.164062 63.582031 "/></clipPath><clipPath id="0b000dfbc8"><path d="M 81 15.3125 L 96 15.3125 L 96 20 L 81 20 Z M 81 15.3125 "/></clipPath></defs><g id="cea2cbde2c"><g clip-rule="nonzero" clip-path="url(#199d25be66)"><path style=" stroke:none;fill-rule:nonzero;fill:#ffffff;fill-opacity:1;" d="M 25.457031 143.257812 C 25.457031 103.097656 99.792969 70.535156 191.492188 70.535156 C 217.269531 70.535156 241.671875 73.109375 263.441406 77.699219 C 236.105469 69.035156 202.519531 63.925781 166.199219 63.925781 C 74.5 63.925781 0.164062 96.484375 0.164062 136.648438 C 0.164062 165.519531 38.582031 190.460938 94.253906 202.203125 C 52.574219 188.992188 25.457031 167.511719 25.457031 143.257812 "/></g><path style=" stroke:none;fill-rule:nonzero;fill:#dfdfdf;fill-opacity:1;" d="M 112.433594 45.300781 C 118.902344 52.277344 133.859375 49.777344 134.066406 41.679688 C 134.214844 35.742188 124.839844 30.488281 115.886719 33.460938 C 108.769531 36.515625 109.582031 42.222656 112.433594 45.300781 "/><path style=" stroke:none;fill-rule:nonzero;fill:#ffffff;fill-opacity:1;" d="M 72.402344 178.109375 C 71.003906 181.40625 76.351562 185.628906 82.109375 187.648438 C 88.882812 190.027344 95.566406 189.359375 93.382812 185.386719 C 90.527344 180.214844 75.910156 173.46875 72.402344 178.109375 "/><path style=" stroke:none;fill-rule:nonzero;fill:#ffffff;fill-opacity:1;" d="M 79.464844 150.203125 C 79.027344 141.25 68.261719 133.632812 60.960938 139.585938 C 55.957031 144.898438 59.382812 152.160156 63.414062 155.617188 C 70.734375 161.902344 79.886719 158.8125 79.464844 150.203125 "/><path style=" stroke:none;fill-rule:nonzero;fill:#ffffff;fill-opacity:1;" d="M 105.320312 129.40625 C 105.464844 120.574219 95.824219 113.972656 86.644531 119.523438 C 79 125.28125 80.804688 133.273438 84.527344 137.113281 C 91.941406 144.769531 105.15625 139.871094 105.320312 129.40625 "/><path style=" stroke:none;fill-rule:nonzero;fill:#ffffff;fill-opacity:1;" d="M 119.75 82.265625 C 119.773438 82.085938 119.777344 81.914062 119.792969 81.742188 C 111.535156 83.496094 103.613281 85.566406 96.09375 87.933594 C 96.171875 88.058594 96.242188 88.195312 96.328125 88.3125 C 102.613281 97.347656 118.15625 93.335938 119.75 82.265625 "/><path style=" stroke:none;fill-rule:nonzero;fill:#dfdfdf;fill-opacity:1;" d="M 76.925781 30.019531 C 71.160156 33.25 70.496094 37.714844 71.867188 39.855469 C 75.15625 44.996094 88.214844 40.667969 89.550781 33.992188 C 90.476562 29.402344 84.097656 26.570312 76.925781 30.019531 "/><path style=" stroke:none;fill-rule:nonzero;fill:#dfdfdf;fill-opacity:1;" d="M 81.75 60.605469 C 86.875 68.15625 102.03125 63.691406 103.664062 54.144531 C 104.855469 47.179688 96.617188 41.960938 87.347656 46.328125 C 79.746094 50.667969 79.496094 57.289062 81.75 60.605469 "/><path style=" stroke:none;fill-rule:nonzero;fill:#ffffff;fill-opacity:1;" d="M 46.695312 156.261719 C 46.574219 156.394531 46.445312 156.605469 46.339844 156.753906 C 44.390625 161.042969 49.257812 167.449219 53.332031 170.628906 C 59.226562 175.226562 64.609375 174.945312 64.203125 170.066406 C 63.539062 162.125 50.613281 151.933594 46.695312 156.261719 "/><path style=" stroke:none;fill-rule:nonzero;fill:#dfdfdf;fill-opacity:1;" d="M 96.578125 27.527344 C 102.464844 31.546875 115.671875 28.742188 114.695312 23.679688 C 114.027344 20.226562 105.429688 17.9375 98.285156 20.386719 C 92.785156 22.6875 94.320312 25.988281 96.578125 27.527344 "/><path style=" stroke:none;fill-rule:nonzero;fill:#ffffff;fill-opacity:1;" d="M 65.351562 108.445312 C 71.207031 116.847656 85.023438 112.335938 87.089844 101.347656 C 87.734375 97.921875 86.863281 94.40625 84.929688 91.773438 C 81.761719 92.96875 78.683594 94.214844 75.703125 95.519531 C 71.277344 97.457031 67.160156 99.480469 63.335938 101.578125 C 63.339844 104.277344 64.152344 106.722656 65.351562 108.445312 "/><path style=" stroke:none;fill-rule:nonzero;fill:#ffffff;fill-opacity:1;" d="M 58.1875 124.367188 C 59.476562 117.464844 56.109375 111.050781 51.65625 108.898438 C 47.078125 112.195312 43.171875 115.632812 39.976562 119.175781 C 39.957031 122.800781 41.1875 126.253906 42.589844 128.394531 C 47.667969 136.136719 56.414062 133.882812 58.1875 124.367188 "/><path style=" stroke:none;fill-rule:nonzero;fill:#ffffff;fill-opacity:1;" d="M 33.691406 127.859375 C 31.441406 131.925781 30.074219 136.085938 29.640625 140.304688 C 30.292969 141.945312 31.03125 143.429688 31.722656 144.574219 C 35.234375 150.375 39.1875 151.617188 40.359375 147.292969 C 41.898438 141.597656 37.851562 131.582031 33.691406 127.859375 "/><path style=" stroke:none;fill-rule:nonzero;fill:#ffffff;fill-opacity:1;" d="M 84.800781 163.558594 C 80.996094 167.671875 84.523438 172.964844 90.128906 175.710938 C 97.152344 179.148438 106.710938 178.152344 104.488281 171.023438 C 102.46875 164.546875 91.324219 158.3125 84.800781 163.558594 "/><g clip-rule="nonzero" clip-path="url(#0b000dfbc8)"><path style=" stroke:none;fill-rule:nonzero;fill:#dfdfdf;fill-opacity:1;" d="M 81.355469 19.40625 C 81.824219 19.636719 82.722656 19.761719 82.988281 19.792969 C 88.515625 20.476562 96.714844 17.972656 95.59375 16.445312 C 94.769531 15.324219 88.910156 15.820312 82.597656 18.144531 C 81.398438 18.617188 80.539062 19.007812 81.355469 19.40625 "/></g><path style=" stroke:none;fill-rule:nonzero;fill:#dfdfdf;fill-opacity:1;" d="M 117.742188 101.074219 C 109.464844 105.914062 110.136719 114.144531 113.257812 118.441406 C 119.597656 127.179688 133.078125 123.894531 134.78125 113.191406 C 136.199219 104.320312 127.621094 96.550781 117.742188 101.074219 "/><path style=" stroke:none;fill-rule:nonzero;fill:#ffffff;fill-opacity:1;" d="M 35 73.570312 C 41.242188 68.65625 44.652344 55.238281 40.882812 54.882812 C 39.960938 54.796875 39.023438 55.613281 38.402344 56.148438 C 34.785156 59.742188 31.960938 66.0625 31.324219 70.09375 C 30.671875 74.238281 32.25 75.734375 35 73.570312 "/><path style=" stroke:none;fill-rule:nonzero;fill:#ffffff;fill-opacity:1;" d="M 112.03125 180.121094 C 109.398438 183.074219 114 186.066406 119.765625 187.140625 C 124.386719 188.003906 133.816406 187.921875 131.417969 184.582031 C 129.03125 181.253906 117.242188 176.046875 112.03125 180.121094 "/><path style=" stroke:none;fill-rule:nonzero;fill:#dfdfdf;fill-opacity:1;" d="M 124.035156 155.042969 C 123.222656 147.433594 114.433594 141.847656 106.566406 146.558594 C 100.730469 151 102.160156 157.382812 106.914062 160.992188 C 114.09375 166.441406 124.996094 163.949219 124.035156 155.042969 "/><path style=" stroke:none;fill-rule:nonzero;fill:#ffffff;fill-opacity:1;" d="M 78.640625 23.164062 C 79.097656 21.289062 75.84375 20.941406 71.132812 23.316406 C 66.667969 25.707031 67.171875 27.3125 67.320312 27.605469 C 68.542969 30.085938 77.851562 26.433594 78.640625 23.164062 "/><path style=" stroke:none;fill-rule:nonzero;fill:#dfdfdf;fill-opacity:1;" d="M 59.15625 63.058594 C 52.488281 67.957031 51.25 74.835938 52.441406 78.699219 C 58.675781 76.273438 65.320312 74.050781 72.339844 72.058594 C 74.546875 64.277344 68.566406 58.527344 61.105469 61.957031 C 60.492188 62.234375 59.730469 62.703125 59.15625 63.058594 "/><path style=" stroke:none;fill-rule:nonzero;fill:#ffffff;fill-opacity:1;" d="M 54.019531 38.984375 C 58.667969 37.292969 64.300781 29.796875 62.347656 28.992188 C 61.753906 28.75 60.535156 29.558594 59.808594 30.035156 C 56.484375 32.335938 53.546875 35.230469 52.503906 37.238281 C 51.621094 38.933594 52.230469 39.636719 54.019531 38.984375 "/><path style=" stroke:none;fill-rule:nonzero;fill:#ffffff;fill-opacity:1;" d="M 61.34375 52.378906 C 66.34375 46.171875 64.761719 40.320312 59.871094 40.878906 C 58.140625 41.078125 56.746094 41.957031 55.824219 42.539062 C 50.234375 46.574219 48.171875 52.28125 48.5 55.042969 C 49.128906 60.410156 56.808594 58 61.34375 52.378906 "/><path style=" stroke:none;fill-rule:nonzero;fill:#ffffff;fill-opacity:1;" d="M 38.558594 79.628906 C 37.394531 79.96875 36.65625 80.585938 35.882812 81.242188 C 33.925781 83.242188 32.65625 85.734375 31.898438 88.261719 C 35.65625 86.160156 39.671875 84.160156 43.921875 82.257812 C 42.792969 80.089844 40.949219 78.9375 38.558594 79.628906 "/><g style="fill:#ffffff;fill-opacity:1;"><g transform="translate(166.082806, 174.534314)"><path style="stroke:none" d="M 21.453125 1.5 C 19.828125 1.5 17.988281 0.941406 15.9375 -0.171875 C 13.894531 -1.296875 12.097656 -3.113281 10.546875 -5.625 C 9.003906 -8.132812 8.234375 -11.476562 8.234375 -15.65625 C 8.234375 -16.195312 8.234375 -16.71875 8.234375 -17.21875 C 8.234375 -17.71875 8.269531 -18.238281 8.34375 -18.78125 C 8.8125 -23.03125 9.296875 -28.128906 9.796875 -34.078125 C 10.296875 -40.035156 10.757812 -46.351562 11.1875 -53.03125 C 11.613281 -59.71875 11.984375 -66.234375 12.296875 -72.578125 C 10.585938 -73.890625 9.078125 -75.429688 7.765625 -77.203125 C 6.453125 -78.984375 5.796875 -80.492188 5.796875 -81.734375 C 5.796875 -82.429688 6.023438 -82.914062 6.484375 -83.1875 C 6.953125 -83.457031 7.457031 -83.59375 8 -83.59375 C 10.164062 -83.59375 12.71875 -83.664062 15.65625 -83.8125 C 18.59375 -83.96875 21.507812 -84.101562 24.40625 -84.21875 C 27.300781 -84.34375 29.753906 -84.40625 31.765625 -84.40625 C 36.171875 -84.40625 40.285156 -83.671875 44.109375 -82.203125 C 47.941406 -80.734375 51.304688 -78.835938 54.203125 -76.515625 C 57.097656 -74.203125 59.359375 -71.726562 60.984375 -69.09375 C 62.609375 -66.46875 63.421875 -63.992188 63.421875 -61.671875 C 63.421875 -56.960938 62.394531 -52.617188 60.34375 -48.640625 C 58.289062 -44.660156 55.625 -41.046875 52.34375 -37.796875 C 49.0625 -34.546875 45.523438 -31.644531 41.734375 -29.09375 C 39.804688 -27.78125 38.03125 -26.851562 36.40625 -26.3125 C 34.78125 -25.769531 33.3125 -25.5 32 -25.5 C 30.6875 -25.5 29.546875 -25.726562 28.578125 -26.1875 C 27.609375 -26.65625 26.816406 -27.238281 26.203125 -27.9375 C 25.816406 -23.6875 25.429688 -19.300781 25.046875 -14.78125 C 24.660156 -10.257812 24.3125 -5.410156 24 -0.234375 C 23.925781 0.460938 23.65625 0.925781 23.1875 1.15625 C 22.71875 1.382812 22.140625 1.5 21.453125 1.5 Z M 28.40625 -52.875 C 28.175781 -49.78125 27.925781 -46.78125 27.65625 -43.875 C 27.382812 -40.976562 27.09375 -38.0625 26.78125 -35.125 C 33.738281 -40 38.6875 -44.832031 41.625 -49.625 C 44.5625 -54.414062 46.03125 -58.664062 46.03125 -62.375 C 46.03125 -65.539062 45.21875 -68.09375 43.59375 -70.03125 C 42.4375 -70.03125 41.316406 -70.046875 40.234375 -70.078125 C 39.148438 -70.117188 38.101562 -70.140625 37.09375 -70.140625 C 34.78125 -70.140625 32.65625 -70.117188 30.71875 -70.078125 C 28.789062 -70.046875 26.976562 -69.988281 25.28125 -69.90625 C 26.351562 -68.675781 27.179688 -67.054688 27.765625 -65.046875 C 28.347656 -63.035156 28.640625 -60.484375 28.640625 -57.390625 C 28.640625 -56.691406 28.617188 -55.972656 28.578125 -55.234375 C 28.535156 -54.503906 28.476562 -53.71875 28.40625 -52.875 Z M 28.40625 -52.875 "/></g></g><g style="fill:#ffffff;fill-opacity:1;"><g transform="translate(229.951342, 174.534314)"><path style="stroke:none" d="M 28.984375 1.5 C 26.816406 1.5 24.476562 1.304688 21.96875 0.921875 C 19.457031 0.535156 17.082031 -0.269531 14.84375 -1.5 C 12.601562 -2.738281 10.820312 -4.597656 9.5 -7.078125 C 7.414062 -8.460938 5.832031 -10.71875 4.75 -13.84375 C 3.664062 -16.976562 3.125 -20.671875 3.125 -24.921875 C 3.125 -29.867188 3.644531 -35.085938 4.6875 -40.578125 C 5.738281 -46.066406 7.25 -51.421875 9.21875 -56.640625 C 11.1875 -61.859375 13.582031 -66.570312 16.40625 -70.78125 C 19.226562 -74.988281 22.4375 -78.347656 26.03125 -80.859375 C 29.625 -83.378906 33.546875 -84.640625 37.796875 -84.640625 C 40.347656 -84.640625 42.566406 -84.347656 44.453125 -83.765625 C 46.347656 -83.179688 48.070312 -81.769531 49.625 -79.53125 C 52.71875 -78.53125 54.878906 -76.710938 56.109375 -74.078125 C 57.347656 -71.453125 57.890625 -68.785156 57.734375 -66.078125 C 57.660156 -63.535156 56.925781 -60.617188 55.53125 -57.328125 C 54.144531 -54.046875 52.867188 -50.78125 51.703125 -47.53125 C 51.398438 -46.757812 51.070312 -46.140625 50.71875 -45.671875 C 50.375 -45.210938 49.773438 -44.984375 48.921875 -44.984375 C 47.148438 -44.984375 45.429688 -45.597656 43.765625 -46.828125 C 42.109375 -48.066406 40.753906 -49.613281 39.703125 -51.46875 C 38.660156 -53.332031 38.140625 -55.148438 38.140625 -56.921875 C 38.140625 -58.929688 38.546875 -61.421875 39.359375 -64.390625 C 40.171875 -67.367188 41.3125 -69.90625 42.78125 -72 C 40.3125 -71.613281 37.972656 -70.222656 35.765625 -67.828125 C 33.566406 -65.429688 31.554688 -62.28125 29.734375 -58.375 C 27.921875 -54.46875 26.359375 -50.117188 25.046875 -45.328125 C 23.734375 -40.535156 22.707031 -35.507812 21.96875 -30.25 C 21.238281 -25 20.875 -19.863281 20.875 -14.84375 C 24.738281 -14.84375 28.195312 -15.421875 31.25 -16.578125 C 34.300781 -17.734375 36.984375 -19.238281 39.296875 -21.09375 C 41.617188 -22.957031 43.648438 -24.929688 45.390625 -27.015625 C 47.128906 -29.097656 48.691406 -31.03125 50.078125 -32.8125 C 53.253906 -32.269531 54.84375 -29.832031 54.84375 -25.5 C 54.84375 -20.789062 53.679688 -16.367188 51.359375 -12.234375 C 49.035156 -8.097656 45.921875 -4.773438 42.015625 -2.265625 C 38.117188 0.242188 33.773438 1.5 28.984375 1.5 Z M 28.984375 1.5 "/></g></g><g style="fill:#ffffff;fill-opacity:1;"><g transform="translate(288.140109, 174.534314)"><path style="stroke:none" d="M 59.46875 1.625 C 57.769531 1.625 56.242188 1.367188 54.890625 0.859375 C 53.546875 0.359375 52.097656 -0.546875 50.546875 -1.859375 C 48.847656 -2.546875 47.398438 -3.566406 46.203125 -4.921875 C 45.003906 -6.273438 43.941406 -7.800781 43.015625 -9.5 L 22.84375 -45.09375 L 22.609375 -45.09375 C 21.910156 -40.84375 21.3125 -36.085938 20.8125 -30.828125 C 20.3125 -25.578125 19.882812 -20.378906 19.53125 -15.234375 C 19.1875 -10.097656 18.9375 -5.597656 18.78125 -1.734375 C 18.78125 -0.578125 18.046875 0 16.578125 0 C 13.253906 0 10.609375 -1.410156 8.640625 -4.234375 C 6.671875 -7.054688 5.6875 -10.898438 5.6875 -15.765625 C 5.6875 -18.628906 5.878906 -23.421875 6.265625 -30.140625 C 6.648438 -36.867188 7.304688 -45.253906 8.234375 -55.296875 C 8.617188 -60.085938 9.117188 -63.488281 9.734375 -65.5 C 10.359375 -67.507812 11.40625 -68.515625 12.875 -68.515625 L 5.6875 -80.578125 C 5.375 -81.117188 5.21875 -81.695312 5.21875 -82.3125 C 5.21875 -83.78125 6.144531 -84.515625 8 -84.515625 C 10.550781 -84.515625 13.503906 -83.625 16.859375 -81.84375 C 20.222656 -80.070312 22.988281 -77.210938 25.15625 -73.265625 L 48.6875 -29.328125 L 48.921875 -29.328125 C 49.304688 -34.203125 49.691406 -39.226562 50.078125 -44.40625 C 50.472656 -49.582031 50.863281 -54.625 51.25 -59.53125 C 51.632812 -64.4375 51.976562 -68.898438 52.28125 -72.921875 C 52.59375 -76.941406 52.863281 -80.1875 53.09375 -82.65625 C 53.25 -83.28125 53.710938 -83.726562 54.484375 -84 C 55.265625 -84.269531 56.15625 -84.40625 57.15625 -84.40625 C 58.9375 -84.40625 60.597656 -83.941406 62.140625 -83.015625 C 63.691406 -82.085938 64.96875 -80.519531 65.96875 -78.3125 C 66.96875 -76.113281 67.46875 -73.082031 67.46875 -69.21875 C 67.46875 -66.507812 67.253906 -62.738281 66.828125 -57.90625 C 66.410156 -53.082031 65.910156 -47.597656 65.328125 -41.453125 C 64.753906 -35.304688 64.253906 -28.8125 63.828125 -21.96875 C 63.398438 -15.125 63.1875 -8.300781 63.1875 -1.5 C 63.1875 -0.5 62.835938 0.269531 62.140625 0.8125 C 61.441406 1.351562 60.550781 1.625 59.46875 1.625 Z M 59.46875 1.625 "/></g></g><g style="fill:#ffffff;fill-opacity:1;"><g transform="translate(172.962355, 196.251819)"><path style="stroke:none" d="M 6.421875 -12.5625 C 7.441406 -12.5625 8.316406 -12.359375 9.046875 -11.953125 C 9.773438 -11.546875 10.332031 -11.003906 10.71875 -10.328125 C 11.113281 -9.648438 11.3125 -8.910156 11.3125 -8.109375 C 11.3125 -7.304688 11.113281 -6.566406 10.71875 -5.890625 C 10.332031 -5.210938 9.773438 -4.664062 9.046875 -4.25 C 8.316406 -3.84375 7.441406 -3.640625 6.421875 -3.640625 L 4.703125 -3.640625 L 4.703125 0 L 1.25 0 L 1.25 -12.5625 Z M 6.296875 -6.546875 C 7.035156 -6.546875 7.539062 -6.707031 7.8125 -7.03125 C 8.082031 -7.351562 8.21875 -7.710938 8.21875 -8.109375 C 8.21875 -8.503906 8.082031 -8.859375 7.8125 -9.171875 C 7.539062 -9.492188 7.035156 -9.65625 6.296875 -9.65625 L 4.703125 -9.65625 L 4.703125 -6.546875 Z M 6.296875 -6.546875 "/></g></g><g style="fill:#ffffff;fill-opacity:1;"><g transform="translate(184.813271, 196.251819)"><path style="stroke:none" d="M 4.8125 -8.890625 C 5.289062 -8.890625 5.757812 -8.835938 6.21875 -8.734375 C 6.675781 -8.640625 7.09375 -8.460938 7.46875 -8.203125 C 7.84375 -7.953125 8.140625 -7.609375 8.359375 -7.171875 C 8.585938 -6.742188 8.703125 -6.195312 8.703125 -5.53125 C 8.703125 -4.894531 8.703125 -4.25 8.703125 -3.59375 C 8.703125 -2.945312 8.703125 -2.347656 8.703125 -1.796875 C 8.703125 -1.253906 8.703125 -0.816406 8.703125 -0.484375 C 8.703125 -0.160156 8.703125 0 8.703125 0 L 5.6875 0 L 5.6875 -0.84375 C 5.132812 -0.101562 4.289062 0.265625 3.15625 0.265625 C 3.039062 0.265625 2.84375 0.234375 2.5625 0.171875 C 2.289062 0.117188 2 0.00390625 1.6875 -0.171875 C 1.382812 -0.347656 1.125 -0.601562 0.90625 -0.9375 C 0.695312 -1.269531 0.582031 -1.710938 0.5625 -2.265625 C 0.539062 -2.878906 0.644531 -3.390625 0.875 -3.796875 C 1.113281 -4.203125 1.425781 -4.515625 1.8125 -4.734375 C 2.195312 -4.960938 2.597656 -5.113281 3.015625 -5.1875 C 3.285156 -5.226562 3.585938 -5.265625 3.921875 -5.296875 C 4.265625 -5.328125 4.59375 -5.351562 4.90625 -5.375 C 5.21875 -5.40625 5.476562 -5.421875 5.6875 -5.421875 C 5.6875 -5.535156 5.65625 -5.679688 5.59375 -5.859375 C 5.53125 -6.046875 5.410156 -6.207031 5.234375 -6.34375 C 5.054688 -6.476562 4.789062 -6.546875 4.4375 -6.546875 C 3.84375 -6.546875 3.300781 -6.457031 2.8125 -6.28125 C 2.332031 -6.101562 1.992188 -5.957031 1.796875 -5.84375 L 0.96875 -7.796875 C 1.1875 -7.953125 1.488281 -8.113281 1.875 -8.28125 C 2.257812 -8.445312 2.703125 -8.585938 3.203125 -8.703125 C 3.710938 -8.828125 4.25 -8.890625 4.8125 -8.890625 Z M 4.578125 -1.984375 C 5.003906 -1.984375 5.296875 -2.09375 5.453125 -2.3125 C 5.609375 -2.53125 5.6875 -2.726562 5.6875 -2.90625 C 5.6875 -3 5.6875 -3.117188 5.6875 -3.265625 C 5.6875 -3.410156 5.6875 -3.539062 5.6875 -3.65625 C 5.6875 -3.78125 5.6875 -3.84375 5.6875 -3.84375 C 5.6875 -3.84375 5.578125 -3.84375 5.359375 -3.84375 C 5.148438 -3.84375 4.910156 -3.820312 4.640625 -3.78125 C 4.367188 -3.738281 4.144531 -3.648438 3.96875 -3.515625 C 3.75 -3.367188 3.625 -3.171875 3.59375 -2.921875 C 3.570312 -2.679688 3.640625 -2.460938 3.796875 -2.265625 C 3.960938 -2.078125 4.222656 -1.984375 4.578125 -1.984375 Z M 4.578125 -1.984375 "/></g></g><g style="fill:#ffffff;fill-opacity:1;"><g transform="translate(194.405179, 196.251819)"><path style="stroke:none" d="M 5.34375 -2.4375 C 5.726562 -2.425781 6.066406 -2.488281 6.359375 -2.625 C 6.660156 -2.757812 6.9375 -2.929688 7.1875 -3.140625 L 8.796875 -1.109375 C 8.367188 -0.679688 7.847656 -0.34375 7.234375 -0.09375 C 6.617188 0.144531 5.988281 0.265625 5.34375 0.265625 C 4.445312 0.265625 3.632812 0.0625 2.90625 -0.34375 C 2.1875 -0.757812 1.609375 -1.3125 1.171875 -2 C 0.742188 -2.695312 0.53125 -3.46875 0.53125 -4.3125 C 0.53125 -5.15625 0.738281 -5.921875 1.15625 -6.609375 C 1.582031 -7.304688 2.15625 -7.859375 2.875 -8.265625 C 3.601562 -8.679688 4.425781 -8.890625 5.34375 -8.890625 C 5.988281 -8.890625 6.613281 -8.765625 7.21875 -8.515625 C 7.832031 -8.265625 8.359375 -7.929688 8.796875 -7.515625 L 7.078125 -5.546875 C 6.804688 -5.742188 6.53125 -5.898438 6.25 -6.015625 C 5.976562 -6.140625 5.675781 -6.191406 5.34375 -6.171875 C 4.851562 -6.160156 4.40625 -6 4 -5.6875 C 3.601562 -5.382812 3.40625 -4.925781 3.40625 -4.3125 C 3.40625 -3.75 3.601562 -3.300781 4 -2.96875 C 4.40625 -2.632812 4.851562 -2.457031 5.34375 -2.4375 Z M 5.34375 -2.4375 "/></g></g><g style="fill:#ffffff;fill-opacity:1;"><g transform="translate(203.548861, 196.251819)"><path style="stroke:none" d="M 3.890625 -11.109375 C 3.890625 -10.703125 3.742188 -10.347656 3.453125 -10.046875 C 3.171875 -9.753906 2.820312 -9.609375 2.40625 -9.609375 C 2 -9.609375 1.648438 -9.753906 1.359375 -10.046875 C 1.066406 -10.347656 0.921875 -10.703125 0.921875 -11.109375 C 0.921875 -11.523438 1.066406 -11.875 1.359375 -12.15625 C 1.648438 -12.445312 2 -12.59375 2.40625 -12.59375 C 2.820312 -12.59375 3.171875 -12.445312 3.453125 -12.15625 C 3.742188 -11.875 3.890625 -11.523438 3.890625 -11.109375 Z M 3.90625 -8.609375 L 3.90625 0 L 0.890625 0 L 0.890625 -8.609375 Z M 3.90625 -8.609375 "/></g></g><g style="fill:#ffffff;fill-opacity:1;"><g transform="translate(208.353784, 196.251819)"><path style="stroke:none" d="M 7.234375 -10.1875 C 6.984375 -10.28125 6.703125 -10.347656 6.390625 -10.390625 C 6.085938 -10.441406 5.800781 -10.4375 5.53125 -10.375 C 5.257812 -10.3125 5.035156 -10.15625 4.859375 -9.90625 C 4.679688 -9.664062 4.59375 -9.296875 4.59375 -8.796875 C 4.59375 -8.773438 4.59375 -8.75 4.59375 -8.71875 C 4.59375 -8.695312 4.59375 -8.660156 4.59375 -8.609375 L 6.8125 -8.609375 L 6.8125 -5.90625 L 4.59375 -5.90625 C 4.59375 -5.257812 4.59375 -4.59375 4.59375 -3.90625 C 4.59375 -3.21875 4.59375 -2.578125 4.59375 -1.984375 C 4.59375 -1.390625 4.59375 -0.910156 4.59375 -0.546875 C 4.59375 -0.179688 4.59375 0 4.59375 0 L 1.5625 0 C 1.5625 0 1.5625 -0.179688 1.5625 -0.546875 C 1.5625 -0.910156 1.5625 -1.382812 1.5625 -1.96875 C 1.5625 -2.5625 1.5625 -3.203125 1.5625 -3.890625 C 1.5625 -4.585938 1.5625 -5.257812 1.5625 -5.90625 L 0.359375 -5.90625 L 0.359375 -8.609375 L 1.5625 -8.609375 C 1.5625 -8.640625 1.5625 -8.671875 1.5625 -8.703125 C 1.5625 -8.734375 1.5625 -8.765625 1.5625 -8.796875 C 1.5625 -9.390625 1.613281 -9.953125 1.71875 -10.484375 C 1.832031 -11.015625 2.023438 -11.492188 2.296875 -11.921875 C 2.566406 -12.347656 2.957031 -12.679688 3.46875 -12.921875 C 3.988281 -13.160156 4.648438 -13.28125 5.453125 -13.28125 C 6.085938 -13.28125 6.613281 -13.210938 7.03125 -13.078125 C 7.457031 -12.941406 7.75 -12.847656 7.90625 -12.796875 Z M 7.234375 -10.1875 "/></g></g><g style="fill:#ffffff;fill-opacity:1;"><g transform="translate(215.363942, 196.251819)"><path style="stroke:none" d="M 3.890625 -11.109375 C 3.890625 -10.703125 3.742188 -10.347656 3.453125 -10.046875 C 3.171875 -9.753906 2.820312 -9.609375 2.40625 -9.609375 C 2 -9.609375 1.648438 -9.753906 1.359375 -10.046875 C 1.066406 -10.347656 0.921875 -10.703125 0.921875 -11.109375 C 0.921875 -11.523438 1.066406 -11.875 1.359375 -12.15625 C 1.648438 -12.445312 2 -12.59375 2.40625 -12.59375 C 2.820312 -12.59375 3.171875 -12.445312 3.453125 -12.15625 C 3.742188 -11.875 3.890625 -11.523438 3.890625 -11.109375 Z M 3.90625 -8.609375 L 3.90625 0 L 0.890625 0 L 0.890625 -8.609375 Z M 3.90625 -8.609375 "/></g></g><g style="fill:#ffffff;fill-opacity:1;"><g transform="translate(220.168865, 196.251819)"><path style="stroke:none" d="M 5.34375 -2.4375 C 5.726562 -2.425781 6.066406 -2.488281 6.359375 -2.625 C 6.660156 -2.757812 6.9375 -2.929688 7.1875 -3.140625 L 8.796875 -1.109375 C 8.367188 -0.679688 7.847656 -0.34375 7.234375 -0.09375 C 6.617188 0.144531 5.988281 0.265625 5.34375 0.265625 C 4.445312 0.265625 3.632812 0.0625 2.90625 -0.34375 C 2.1875 -0.757812 1.609375 -1.3125 1.171875 -2 C 0.742188 -2.695312 0.53125 -3.46875 0.53125 -4.3125 C 0.53125 -5.15625 0.738281 -5.921875 1.15625 -6.609375 C 1.582031 -7.304688 2.15625 -7.859375 2.875 -8.265625 C 3.601562 -8.679688 4.425781 -8.890625 5.34375 -8.890625 C 5.988281 -8.890625 6.613281 -8.765625 7.21875 -8.515625 C 7.832031 -8.265625 8.359375 -7.929688 8.796875 -7.515625 L 7.078125 -5.546875 C 6.804688 -5.742188 6.53125 -5.898438 6.25 -6.015625 C 5.976562 -6.140625 5.675781 -6.191406 5.34375 -6.171875 C 4.851562 -6.160156 4.40625 -6 4 -5.6875 C 3.601562 -5.382812 3.40625 -4.925781 3.40625 -4.3125 C 3.40625 -3.75 3.601562 -3.300781 4 -2.96875 C 4.40625 -2.632812 4.851562 -2.457031 5.34375 -2.4375 Z M 5.34375 -2.4375 "/></g></g><g style="fill:#ffffff;fill-opacity:1;"><g transform="translate(229.312546, 196.251819)"><path style="stroke:none" d="M 7.671875 -2.796875 C 8.140625 -2.796875 8.585938 -2.875 9.015625 -3.03125 C 9.453125 -3.195312 9.863281 -3.414062 10.25 -3.6875 L 11.921875 -1.296875 C 11.304688 -0.816406 10.644531 -0.4375 9.9375 -0.15625 C 9.238281 0.125 8.484375 0.265625 7.671875 0.265625 C 6.660156 0.265625 5.71875 0.0976562 4.84375 -0.234375 C 3.976562 -0.578125 3.222656 -1.046875 2.578125 -1.640625 C 1.929688 -2.242188 1.425781 -2.941406 1.0625 -3.734375 C 0.707031 -4.523438 0.53125 -5.375 0.53125 -6.28125 C 0.53125 -7.1875 0.707031 -8.035156 1.0625 -8.828125 C 1.425781 -9.617188 1.929688 -10.316406 2.578125 -10.921875 C 3.222656 -11.523438 3.976562 -11.992188 4.84375 -12.328125 C 5.71875 -12.671875 6.660156 -12.84375 7.671875 -12.84375 C 8.484375 -12.84375 9.238281 -12.703125 9.9375 -12.421875 C 10.644531 -12.140625 11.304688 -11.753906 11.921875 -11.265625 L 10.25 -8.875 C 9.457031 -9.46875 8.597656 -9.765625 7.671875 -9.765625 C 6.953125 -9.765625 6.304688 -9.609375 5.734375 -9.296875 C 5.171875 -8.984375 4.722656 -8.566406 4.390625 -8.046875 C 4.054688 -7.523438 3.890625 -6.9375 3.890625 -6.28125 C 3.890625 -5.632812 4.054688 -5.046875 4.390625 -4.515625 C 4.722656 -3.992188 5.171875 -3.578125 5.734375 -3.265625 C 6.304688 -2.953125 6.953125 -2.796875 7.671875 -2.796875 Z M 7.671875 -2.796875 "/></g></g><g style="fill:#ffffff;fill-opacity:1;"><g transform="translate(241.77305, 196.251819)"><path style="stroke:none" d="M 5.203125 -8.890625 C 5.835938 -8.890625 6.4375 -8.769531 7 -8.53125 C 7.5625 -8.289062 8.054688 -7.960938 8.484375 -7.546875 C 8.910156 -7.128906 9.242188 -6.640625 9.484375 -6.078125 C 9.734375 -5.523438 9.859375 -4.9375 9.859375 -4.3125 C 9.859375 -3.675781 9.734375 -3.082031 9.484375 -2.53125 C 9.242188 -1.976562 8.910156 -1.492188 8.484375 -1.078125 C 8.054688 -0.660156 7.5625 -0.332031 7 -0.09375 C 6.4375 0.144531 5.835938 0.265625 5.203125 0.265625 C 4.566406 0.265625 3.96875 0.144531 3.40625 -0.09375 C 2.84375 -0.332031 2.347656 -0.660156 1.921875 -1.078125 C 1.492188 -1.492188 1.15625 -1.976562 0.90625 -2.53125 C 0.65625 -3.082031 0.53125 -3.675781 0.53125 -4.3125 C 0.53125 -4.9375 0.65625 -5.523438 0.90625 -6.078125 C 1.15625 -6.640625 1.492188 -7.128906 1.921875 -7.546875 C 2.347656 -7.960938 2.84375 -8.289062 3.40625 -8.53125 C 3.96875 -8.769531 4.566406 -8.890625 5.203125 -8.890625 Z M 5.203125 -2.46875 C 5.710938 -2.46875 6.144531 -2.644531 6.5 -3 C 6.863281 -3.363281 7.046875 -3.800781 7.046875 -4.3125 C 7.046875 -4.820312 6.863281 -5.253906 6.5 -5.609375 C 6.144531 -5.972656 5.710938 -6.15625 5.203125 -6.15625 C 4.691406 -6.15625 4.253906 -5.972656 3.890625 -5.609375 C 3.535156 -5.253906 3.359375 -4.820312 3.359375 -4.3125 C 3.359375 -3.800781 3.535156 -3.363281 3.890625 -3 C 4.253906 -2.644531 4.691406 -2.46875 5.203125 -2.46875 Z M 5.203125 -2.46875 "/></g></g><g style="fill:#ffffff;fill-opacity:1;"><g transform="translate(252.17174, 196.251819)"><path style="stroke:none" d="M 11.28125 -8.890625 C 12.382812 -8.890625 13.160156 -8.59375 13.609375 -8 C 14.066406 -7.40625 14.296875 -6.582031 14.296875 -5.53125 L 14.296875 0 L 11.28125 0 L 11.28125 -5.140625 C 11.28125 -5.640625 11.175781 -5.992188 10.96875 -6.203125 C 10.769531 -6.410156 10.539062 -6.515625 10.28125 -6.515625 C 10 -6.515625 9.738281 -6.414062 9.5 -6.21875 C 9.257812 -6.019531 9.128906 -5.679688 9.109375 -5.203125 L 9.109375 0 L 6.09375 0 L 6.09375 -5.140625 C 6.09375 -5.640625 5.988281 -5.992188 5.78125 -6.203125 C 5.582031 -6.410156 5.351562 -6.515625 5.09375 -6.515625 C 4.820312 -6.515625 4.5625 -6.414062 4.3125 -6.21875 C 4.070312 -6.019531 3.941406 -5.679688 3.921875 -5.203125 L 3.921875 0 L 0.890625 0 L 0.890625 -8.609375 L 3.921875 -8.609375 L 3.921875 -7.78125 C 4.160156 -8.082031 4.472656 -8.34375 4.859375 -8.5625 C 5.242188 -8.78125 5.65625 -8.890625 6.09375 -8.890625 C 6.800781 -8.890625 7.347656 -8.757812 7.734375 -8.5 C 8.128906 -8.25 8.453125 -7.890625 8.703125 -7.421875 C 8.847656 -7.660156 9.066406 -7.894531 9.359375 -8.125 C 9.660156 -8.351562 9.984375 -8.535156 10.328125 -8.671875 C 10.679688 -8.816406 11 -8.890625 11.28125 -8.890625 Z M 11.28125 -8.890625 "/></g></g><g style="fill:#ffffff;fill-opacity:1;"><g transform="translate(267.357416, 196.251819)"><path style="stroke:none" d=""/></g></g><g style="fill:#ffffff;fill-opacity:1;"><g transform="translate(271.98304, 196.251819)"><path style="stroke:none" d="M 1.25 -12.5625 L 4.3125 -12.5625 L 8.65625 -5.90625 L 8.65625 -12.5625 L 12.109375 -12.5625 L 12.109375 0 L 9.0625 0 L 4.703125 -6.671875 L 4.703125 0 L 1.25 0 Z M 1.25 -12.5625 "/></g></g><g style="fill:#ffffff;fill-opacity:1;"><g transform="translate(285.339976, 196.251819)"><path style="stroke:none" d="M 8.96875 -3.25 L 3.5625 -3.25 C 3.707031 -2.925781 3.914062 -2.664062 4.1875 -2.46875 C 4.457031 -2.28125 4.742188 -2.160156 5.046875 -2.109375 C 5.453125 -2.054688 5.816406 -2.066406 6.140625 -2.140625 C 6.460938 -2.222656 6.734375 -2.328125 6.953125 -2.453125 C 7.171875 -2.585938 7.316406 -2.703125 7.390625 -2.796875 L 8.5625 -1.171875 C 8.007812 -0.660156 7.457031 -0.289062 6.90625 -0.0625 C 6.363281 0.15625 5.6875 0.265625 4.875 0.265625 C 4.101562 0.265625 3.382812 0.0625 2.71875 -0.34375 C 2.050781 -0.757812 1.519531 -1.3125 1.125 -2 C 0.726562 -2.695312 0.53125 -3.46875 0.53125 -4.3125 C 0.53125 -5.15625 0.726562 -5.921875 1.125 -6.609375 C 1.519531 -7.304688 2.050781 -7.859375 2.71875 -8.265625 C 3.382812 -8.679688 4.101562 -8.890625 4.875 -8.890625 C 5.664062 -8.890625 6.378906 -8.695312 7.015625 -8.3125 C 7.648438 -7.9375 8.148438 -7.421875 8.515625 -6.765625 C 8.878906 -6.109375 9.0625 -5.351562 9.0625 -4.5 C 9.0625 -4.28125 9.050781 -4.066406 9.03125 -3.859375 C 9.019531 -3.648438 9 -3.445312 8.96875 -3.25 Z M 4.875 -6.328125 C 4.519531 -6.328125 4.207031 -6.21875 3.9375 -6 C 3.664062 -5.78125 3.476562 -5.472656 3.375 -5.078125 L 6.453125 -5.078125 C 6.367188 -5.492188 6.179688 -5.804688 5.890625 -6.015625 C 5.609375 -6.222656 5.269531 -6.328125 4.875 -6.328125 Z M 4.875 -6.328125 "/></g></g><g style="fill:#ffffff;fill-opacity:1;"><g transform="translate(294.931883, 196.251819)"><path style="stroke:none" d="M 6.46875 -2.796875 L 7.140625 -0.328125 C 6.972656 -0.210938 6.648438 -0.0859375 6.171875 0.046875 C 5.703125 0.191406 5.148438 0.265625 4.515625 0.265625 C 3.828125 0.265625 3.269531 0.144531 2.84375 -0.09375 C 2.425781 -0.332031 2.113281 -0.660156 1.90625 -1.078125 C 1.695312 -1.503906 1.554688 -1.988281 1.484375 -2.53125 C 1.410156 -3.070312 1.375 -3.632812 1.375 -4.21875 C 1.375 -4.382812 1.375 -4.613281 1.375 -4.90625 C 1.375 -5.195312 1.375 -5.53125 1.375 -5.90625 L 0.171875 -5.90625 L 0.171875 -8.609375 L 1.375 -8.609375 C 1.375 -9.140625 1.375 -9.578125 1.375 -9.921875 C 1.375 -10.273438 1.375 -10.453125 1.375 -10.453125 L 4.40625 -10.828125 C 4.40625 -10.828125 4.40625 -10.609375 4.40625 -10.171875 C 4.40625 -9.742188 4.40625 -9.222656 4.40625 -8.609375 L 6.640625 -8.609375 L 6.640625 -5.90625 L 4.40625 -5.90625 C 4.40625 -5.5 4.40625 -5.144531 4.40625 -4.84375 C 4.40625 -4.550781 4.40625 -4.363281 4.40625 -4.28125 C 4.40625 -3.46875 4.585938 -2.9375 4.953125 -2.6875 C 5.316406 -2.445312 5.820312 -2.484375 6.46875 -2.796875 Z M 6.46875 -2.796875 "/></g></g><g style="fill:#ffffff;fill-opacity:1;"><g transform="translate(302.426123, 196.251819)"><path style="stroke:none" d="M 11.375 -8.609375 L 14.671875 -8.609375 L 11.859375 0 L 8.96875 0 L 7.421875 -4.453125 L 5.890625 0 L 3 0 L 0.171875 -8.609375 L 3.484375 -8.609375 L 4.578125 -3.890625 L 5.96875 -8.609375 L 8.890625 -8.609375 L 10.28125 -3.890625 Z M 11.375 -8.609375 "/></g></g><g style="fill:#ffffff;fill-opacity:1;"><g transform="translate(317.27116, 196.251819)"><path style="stroke:none" d="M 5.203125 -8.890625 C 5.835938 -8.890625 6.4375 -8.769531 7 -8.53125 C 7.5625 -8.289062 8.054688 -7.960938 8.484375 -7.546875 C 8.910156 -7.128906 9.242188 -6.640625 9.484375 -6.078125 C 9.734375 -5.523438 9.859375 -4.9375 9.859375 -4.3125 C 9.859375 -3.675781 9.734375 -3.082031 9.484375 -2.53125 C 9.242188 -1.976562 8.910156 -1.492188 8.484375 -1.078125 C 8.054688 -0.660156 7.5625 -0.332031 7 -0.09375 C 6.4375 0.144531 5.835938 0.265625 5.203125 0.265625 C 4.566406 0.265625 3.96875 0.144531 3.40625 -0.09375 C 2.84375 -0.332031 2.347656 -0.660156 1.921875 -1.078125 C 1.492188 -1.492188 1.15625 -1.976562 0.90625 -2.53125 C 0.65625 -3.082031 0.53125 -3.675781 0.53125 -4.3125 C 0.53125 -4.9375 0.65625 -5.523438 0.90625 -6.078125 C 1.15625 -6.640625 1.492188 -7.128906 1.921875 -7.546875 C 2.347656 -7.960938 2.84375 -8.289062 3.40625 -8.53125 C 3.96875 -8.769531 4.566406 -8.890625 5.203125 -8.890625 Z M 5.203125 -2.46875 C 5.710938 -2.46875 6.144531 -2.644531 6.5 -3 C 6.863281 -3.363281 7.046875 -3.800781 7.046875 -4.3125 C 7.046875 -4.820312 6.863281 -5.253906 6.5 -5.609375 C 6.144531 -5.972656 5.710938 -6.15625 5.203125 -6.15625 C 4.691406 -6.15625 4.253906 -5.972656 3.890625 -5.609375 C 3.535156 -5.253906 3.359375 -4.820312 3.359375 -4.3125 C 3.359375 -3.800781 3.535156 -3.363281 3.890625 -3 C 4.253906 -2.644531 4.691406 -2.46875 5.203125 -2.46875 Z M 5.203125 -2.46875 "/></g></g><g style="fill:#ffffff;fill-opacity:1;"><g transform="translate(327.669851, 196.251819)"><path style="stroke:none" d="M 6.40625 -8.890625 C 6.726562 -8.890625 7.039062 -8.851562 7.34375 -8.78125 C 7.644531 -8.71875 7.851562 -8.660156 7.96875 -8.609375 L 7.25 -5.453125 C 7.03125 -5.546875 6.785156 -5.640625 6.515625 -5.734375 C 6.242188 -5.835938 5.898438 -5.875 5.484375 -5.84375 C 5.285156 -5.832031 5.0625 -5.773438 4.8125 -5.671875 C 4.570312 -5.578125 4.363281 -5.398438 4.1875 -5.140625 C 4.007812 -4.890625 3.921875 -4.535156 3.921875 -4.078125 C 3.921875 -3.992188 3.921875 -3.796875 3.921875 -3.484375 C 3.921875 -3.179688 3.921875 -2.832031 3.921875 -2.4375 C 3.921875 -2.050781 3.921875 -1.671875 3.921875 -1.296875 C 3.921875 -0.921875 3.921875 -0.609375 3.921875 -0.359375 C 3.921875 -0.117188 3.921875 0 3.921875 0 L 0.890625 0 L 0.890625 -8.609375 L 3.921875 -8.609375 L 3.921875 -7.78125 C 4.023438 -7.914062 4.195312 -8.066406 4.4375 -8.234375 C 4.6875 -8.410156 4.984375 -8.5625 5.328125 -8.6875 C 5.671875 -8.820312 6.03125 -8.890625 6.40625 -8.890625 Z M 6.40625 -8.890625 "/></g></g><g style="fill:#ffffff;fill-opacity:1;"><g transform="translate(335.988812, 196.251819)"><path style="stroke:none" d="M 9.609375 0 L 6.3125 0 L 3.90625 -3.859375 L 3.90625 0 L 0.890625 0 L 0.890625 -12.5625 L 3.90625 -12.5625 L 3.90625 -4.953125 L 5.96875 -8.609375 L 9.28125 -8.609375 L 6.78125 -4.4375 Z M 9.609375 0 "/></g></g><g style="fill:#ffffff;fill-opacity:1;"><g transform="translate(345.419359, 196.251819)"><path style="stroke:none" d="M 4.078125 -6.171875 C 4.078125 -5.960938 4.171875 -5.796875 4.359375 -5.671875 C 4.546875 -5.546875 4.785156 -5.4375 5.078125 -5.34375 C 5.378906 -5.25 5.691406 -5.140625 6.015625 -5.015625 C 6.347656 -4.890625 6.660156 -4.726562 6.953125 -4.53125 C 7.242188 -4.332031 7.484375 -4.066406 7.671875 -3.734375 C 7.859375 -3.410156 7.953125 -3 7.953125 -2.5 C 7.929688 -1.695312 7.617188 -1.035156 7.015625 -0.515625 C 6.410156 0.00390625 5.484375 0.265625 4.234375 0.265625 C 3.859375 0.265625 3.445312 0.21875 3 0.125 C 2.5625 0.03125 2.128906 -0.101562 1.703125 -0.28125 C 1.273438 -0.46875 0.882812 -0.6875 0.53125 -0.9375 L 1.453125 -2.921875 C 1.785156 -2.671875 2.144531 -2.46875 2.53125 -2.3125 C 2.925781 -2.15625 3.296875 -2.050781 3.640625 -2 C 3.992188 -1.945312 4.285156 -1.953125 4.515625 -2.015625 C 4.753906 -2.078125 4.890625 -2.203125 4.921875 -2.390625 C 4.941406 -2.609375 4.859375 -2.785156 4.671875 -2.921875 C 4.484375 -3.066406 4.238281 -3.191406 3.9375 -3.296875 C 3.632812 -3.410156 3.304688 -3.535156 2.953125 -3.671875 C 2.609375 -3.804688 2.285156 -3.988281 1.984375 -4.21875 C 1.679688 -4.445312 1.4375 -4.742188 1.25 -5.109375 C 1.070312 -5.484375 0.992188 -5.960938 1.015625 -6.546875 C 1.066406 -7.328125 1.421875 -7.9375 2.078125 -8.375 C 2.742188 -8.820312 3.703125 -8.992188 4.953125 -8.890625 C 5.367188 -8.867188 5.78125 -8.804688 6.1875 -8.703125 C 6.601562 -8.609375 6.957031 -8.503906 7.25 -8.390625 C 7.539062 -8.285156 7.71875 -8.203125 7.78125 -8.140625 L 6.90625 -6.140625 C 6.632812 -6.347656 6.332031 -6.503906 6 -6.609375 C 5.664062 -6.710938 5.351562 -6.757812 5.0625 -6.75 C 4.769531 -6.75 4.53125 -6.695312 4.34375 -6.59375 C 4.164062 -6.5 4.078125 -6.359375 4.078125 -6.171875 Z M 4.078125 -6.171875 "/></g></g></g></svg>