<?xml version="1.0" encoding="utf-8"?>
<!-- Generator: Adobe Illustrator 27.5.0, SVG Export Plug-In . SVG Version: 6.00 Build 0)  -->
<svg version="1.1" xmlns="http://www.w3.org/2000/svg" xmlns:xlink="http://www.w3.org/1999/xlink" x="0px" y="0px"
	 viewBox="0 0 500 500" style="enable-background:new 0 0 500 500;" xml:space="preserve">
<g id="BACKGROUND">
	<rect style="fill:#C7FEF9;" width="500.078" height="500"/>
</g>
<g id="OBJECTS">
	<rect y="325.333" style="fill:#A4E9D4;" width="500" height="174.667"/>
	<polygon style="fill:#FFFFFF;" points="50.693,386.5 151.448,386.5 133.629,329.333 67.007,329.333 	"/>
	<path style="fill:#BDBDBD;" d="M89.386,341.022L89.386,341.022l-4.707,4.77l-0.065,0.136v0.001l-15.591,32.727
		c-0.502,1.048-0.059,2.305,0.989,2.807c1.048,0.502,2.305,0.059,2.807-0.989l15.656-32.863l0-0.001l0.659-4.766L89.386,341.022
		L89.386,341.022z"/>
	<g>
		<g>
			<path style="fill:#DCA427;" d="M69.377,380.376L69.377,380.376c1.048,0.502,2.305,0.059,2.807-0.989l15.657-32.864l0.911-6.588
				l-4.707,4.77l-15.657,32.864C67.886,378.617,68.329,379.874,69.377,380.376z"/>
			<polygon style="fill:#FFFFFF;" points="87.841,346.522 87.775,346.659 83.98,344.841 84.045,344.704 88.752,339.934 			"/>
			<polygon points="88.752,339.934 88.313,343.109 86.484,342.233 			"/>
		</g>
		<path style="fill:#DCA427;" d="M83.98,344.841c0,0,1.756-0.583,3.796,1.818L84,349.358L83.98,344.841z"/>
		<path style="fill:#FFFFFF;" d="M86.484,342.233c0,0,1.171-0.254,1.829,0.876l-1.728,1.329L86.484,342.233z"/>
		<circle style="fill:#FFFFFF;" cx="70.332" cy="378.533" r="1.988"/>
		<circle cx="70.332" cy="378.533" r="0.696"/>
	</g>
	<g>
		
			<ellipse transform="matrix(0.9872 -0.1596 0.1596 0.9872 -16.2558 20.7635)" style="fill:#FFFFFF;" cx="121.101" cy="111.555" rx="41.754" ry="41.754"/>
		<path style="fill:#537EB1;" d="M120.208,102.199l-3.235-3.235l-0.703,0.703l-15.401-15.401c-1.9-1.9-4.992-1.9-6.892,0
			c-1.9,1.9-1.9,4.992,0,6.892l15.401,15.401l-0.703,0.703l3.235,3.235l2.518-2.518l22.566,21.728l-0.004,0.004l1.935,4.132
			l4.645,1.745l0.725-0.725l0.242-0.242l0.725-0.725l-1.745-4.645l-4.018-1.882l-21.81-22.651L120.208,102.199z"/>
		<path style="fill:#E1721B;" d="M149.961,91.574l-7.304,7.304l-6.253-6.253l7.304-7.304c-3.482-1.17-7.471-0.407-10.244,2.367
			c-3.278,3.278-3.764,8.251-1.535,12.076l-21.817,21.817c-3.825-2.229-8.797-1.745-12.075,1.533
			c-2.774,2.774-3.536,6.763-2.367,10.245l7.304-7.304l6.253,6.253l-7.304,7.304c3.482,1.169,7.471,0.407,10.244-2.367
			c3.278-3.278,3.764-8.251,1.535-12.076l21.817-21.817c3.825,2.229,8.797,1.745,12.074-1.533
			C150.367,99.045,151.13,95.056,149.961,91.574z"/>
	</g>
	<g>
		
			<ellipse transform="matrix(0.9872 -0.1596 0.1596 0.9872 -31.978 22.0266)" style="fill:#FFFFFF;" cx="121.101" cy="210.039" rx="41.754" ry="41.754"/>
		<path style="fill:#537EB1;" d="M133.012,199.94v-6.621l-5.669-0.259c-0.462-1.699-1.187-3.29-2.151-4.71l3.632-3.98l-4.682-4.682
			l-4.189,3.823c-1.485-0.85-3.117-1.469-4.854-1.801l-0.246-5.389h-6.621l-0.259,5.669c-1.699,0.463-3.29,1.187-4.71,2.151
			l-3.98-3.632l-4.682,4.682l3.823,4.189c-0.851,1.485-1.469,3.117-1.801,4.854l-5.389,0.246v6.621l5.669,0.259
			c0.463,1.699,1.187,3.29,2.151,4.71l-3.632,3.98l4.682,4.682l4.189-3.823c1.485,0.851,3.117,1.469,4.854,1.801l0.246,5.389h6.621
			l0.259-5.669c1.699-0.463,3.29-1.187,4.71-2.151l3.98,3.632l4.682-4.682l-3.823-4.189c0.851-1.485,1.469-3.117,1.801-4.854
			L133.012,199.94z M112.124,206.795c-5.293,0-9.584-4.291-9.584-9.584c0-5.293,4.291-9.584,9.584-9.584
			c5.293,0,9.584,4.291,9.584,9.584C121.708,202.504,117.417,206.795,112.124,206.795z"/>
		<path style="fill:#E1721B;" d="M150.723,229.02v-5.142l-4.403-0.201c-0.359-1.32-0.921-2.555-1.671-3.658l2.821-3.09l-3.636-3.636
			l-3.253,2.969c-1.153-0.66-2.42-1.141-3.769-1.398l-0.191-4.185h-5.142l-0.201,4.403c-1.32,0.359-2.555,0.921-3.658,1.671
			l-3.09-2.821l-3.636,3.636l2.969,3.253c-0.66,1.153-1.141,2.42-1.398,3.769l-4.185,0.191v5.141l4.403,0.201
			c0.359,1.32,0.921,2.555,1.671,3.658l-2.821,3.09l3.636,3.636l3.253-2.969c1.153,0.66,2.42,1.141,3.769,1.398l0.191,4.185h5.142
			l0.201-4.403c1.32-0.359,2.555-0.921,3.657-1.671l3.091,2.821l3.636-3.636l-2.969-3.253c0.66-1.153,1.141-2.42,1.398-3.769
			L150.723,229.02z M134.502,234.343c-4.11,0-7.442-3.332-7.442-7.442c0-4.11,3.332-7.443,7.442-7.443
			c4.11,0,7.442,3.332,7.442,7.443C141.945,231.011,138.613,234.343,134.502,234.343z"/>
	</g>
	<g>
		
			<ellipse transform="matrix(0.9877 -0.1564 0.1564 0.9877 -12.6969 61.7683)" style="fill:#FFFFFF;" cx="386.101" cy="111.555" rx="41.754" ry="41.754"/>
		<rect x="360" y="94.5" style="fill:#537EB1;" width="13" height="14"/>
		<rect x="360" y="117.5" style="fill:#537EB1;" width="13" height="14"/>
		<polygon style="fill:#E1721B;" points="362.945,96.883 367.768,104.556 381.141,91.183 368.206,99.514 		"/>
		<polygon style="fill:#E1721B;" points="361.849,116.833 366.672,124.506 380.045,111.133 367.11,119.464 		"/>
		<line style="fill:none;stroke:#537EB1;stroke-miterlimit:10;" x1="377.667" y1="101.667" x2="418" y2="101.667"/>
		<line style="fill:none;stroke:#537EB1;stroke-miterlimit:10;" x1="377.667" y1="106.333" x2="418" y2="106.333"/>
		<line style="fill:none;stroke:#537EB1;stroke-miterlimit:10;" x1="377.667" y1="120.667" x2="418" y2="120.667"/>
		<line style="fill:none;stroke:#537EB1;stroke-miterlimit:10;" x1="377.667" y1="126" x2="418" y2="126"/>
	</g>
	<polygon style="fill:#9AD2BE;" points="152.293,342.967 175.028,382.925 330.653,382.925 349.254,342.967 	"/>
	<g>
		<g>
			<polygon style="fill:#73A65B;" points="182.759,219.161 139.258,326.79 173.759,326.79 191.009,287.039 			"/>
			<polygon style="fill:#73A65B;" points="320.705,220.678 364.206,328.306 329.705,328.306 312.454,288.555 			"/>
			<g>
				<path style="fill:#DDB58E;" d="M134.364,317.585l0.033,9.5c0.014,4.034,2.222,7.741,5.762,9.674l4.872,2.661
					c2.542,1.388,5.595,1.471,8.209,0.224l4.763-2.274l4.636,1.175c2.053,0.52,4.221,0.353,6.17-0.477l11.876-5.057l11.597-0.314
					c1.496-0.04,2.758-1.125,3.024-2.598l0,0c0.303-1.68-0.785-3.297-2.455-3.65l-10.65-2.253l-6.647-0.839l-1.093-16.583
					l-7.074-0.057l-0.821,6.149l-24.122,5.603l-1.527-1.849L134.364,317.585z"/>
				<path style="fill:#F2D2A9;" d="M173.13,304.704l-6.098-0.036c-1.304-0.008-2.38,1.017-2.437,2.32l-0.73,16.945
					c-0.125,2.905,2.219,5.317,5.126,5.275l0,0c2.587-0.038,4.728-2.021,4.963-4.597l1.575-17.261
					C175.659,305.935,174.55,304.713,173.13,304.704z"/>
				<path style="fill:#F2D2A9;" d="M162.031,301.834l-6.091,0.297c-1.302,0.064-2.321,1.146-2.306,2.45l0.198,16.959
					c0.034,2.908,2.507,5.188,5.407,4.986l0,0c2.581-0.179,4.61-2.277,4.704-4.862l0.628-17.321
					C164.624,302.924,163.45,301.764,162.031,301.834z"/>
				<path style="fill:#F2D2A9;" d="M150.834,306.414l-6.046,0.792c-1.293,0.169-2.22,1.331-2.099,2.629l1.577,16.887
					c0.27,2.895,2.92,4.967,5.795,4.53h0c2.558-0.388,4.41-2.644,4.293-5.229l-0.783-17.315
					C153.506,307.289,152.242,306.229,150.834,306.414z"/>
				<path style="fill:#F2D2A9;" d="M140.802,315.022l-4.796,0.553c-1.026,0.118-1.751,1.007-1.642,2.011l1.418,13.061
					c0.243,2.239,2.369,3.865,4.648,3.556l0,0c2.028-0.275,3.478-2,3.36-3.997l-0.791-13.384
					C142.934,315.725,141.919,314.893,140.802,315.022z"/>
				<path style="fill:#F0C694;" d="M140.43,334.203c2.028-0.275,3.478-2,3.36-3.997l-0.359-6.071l-8.234,1.128l0.585,5.384
					C136.025,332.885,138.15,334.512,140.43,334.203z"/>
				<path style="fill:#F0C694;" d="M144.265,326.721c0.27,2.895,2.92,4.967,5.795,4.53c2.558-0.388,4.41-2.644,4.293-5.229
					l-0.324-7.168l-10.371,1.365L144.265,326.721z"/>
				<path style="fill:#F0C694;" d="M164.2,314.597l-10.445,0.294l0.078,6.648c0.034,2.908,2.507,5.188,5.407,4.986
					c2.581-0.179,4.61-2.277,4.704-4.862L164.2,314.597z"/>
				<path style="fill:#F0C694;" d="M144.265,326.721c0.27,2.895,2.92,4.967,5.795,4.53c2.558-0.388,4.41-2.644,4.293-5.229
					l-0.324-7.168l-10.371,1.365L144.265,326.721z"/>
				<path style="fill:#F0C694;" d="M164.289,314.095l-0.424,9.838c-0.125,2.905,2.219,5.317,5.126,5.275
					c2.587-0.038,4.728-2.021,4.963-4.597l0.922-10.103L164.289,314.095z"/>
			</g>
			<g>
				<path style="fill:#DDB58E;" d="M368.015,317.585l-0.033,9.5c-0.014,4.034-2.222,7.741-5.762,9.674l-4.872,2.661
					c-2.542,1.388-5.595,1.471-8.209,0.224l-4.763-2.274l-4.636,1.175c-2.053,0.52-4.221,0.353-6.17-0.477l-11.875-5.057
					l-11.597-0.314c-1.496-0.04-2.758-1.125-3.024-2.598l0,0c-0.303-1.68,0.785-3.297,2.455-3.65l10.65-2.253l6.647-0.839
					l1.093-16.583l7.074-0.057l0.821,6.149l24.122,5.603l1.527-1.849L368.015,317.585z"/>
				<path style="fill:#F2D2A9;" d="M329.249,304.704l6.098-0.036c1.304-0.008,2.38,1.017,2.437,2.32l0.73,16.945
					c0.125,2.905-2.219,5.317-5.126,5.275l0,0c-2.587-0.038-4.728-2.021-4.963-4.597l-1.575-17.261
					C326.72,305.935,327.829,304.713,329.249,304.704z"/>
				<path style="fill:#F2D2A9;" d="M340.347,301.834l6.091,0.297c1.302,0.064,2.321,1.146,2.306,2.45l-0.198,16.959
					c-0.034,2.908-2.507,5.188-5.407,4.986l0,0c-2.581-0.179-4.61-2.277-4.704-4.862l-0.628-17.321
					C337.755,302.924,338.929,301.764,340.347,301.834z"/>
				<path style="fill:#F2D2A9;" d="M351.545,306.414l6.047,0.792c1.293,0.169,2.22,1.331,2.099,2.629l-1.577,16.887
					c-0.27,2.895-2.92,4.967-5.795,4.53l0,0c-2.558-0.388-4.41-2.644-4.293-5.229l0.783-17.315
					C348.872,307.289,350.137,306.229,351.545,306.414z"/>
				<path style="fill:#F2D2A9;" d="M361.577,315.022l4.796,0.553c1.026,0.118,1.751,1.007,1.642,2.011l-1.418,13.061
					c-0.243,2.239-2.369,3.865-4.648,3.556l0,0c-2.028-0.275-3.478-2-3.36-3.997l0.791-13.384
					C359.445,315.725,360.46,314.893,361.577,315.022z"/>
				<path style="fill:#F0C694;" d="M361.949,334.203c-2.028-0.275-3.478-2-3.36-3.997l0.359-6.071l8.233,1.128l-0.585,5.384
					C366.354,332.885,364.229,334.512,361.949,334.203z"/>
				<path style="fill:#F0C694;" d="M358.114,326.721c-0.271,2.895-2.92,4.967-5.795,4.53c-2.558-0.388-4.41-2.644-4.293-5.229
					l0.324-7.168l10.371,1.365L358.114,326.721z"/>
				<path style="fill:#F0C694;" d="M338.178,314.597l10.446,0.294l-0.078,6.648c-0.034,2.908-2.507,5.188-5.407,4.986
					c-2.581-0.179-4.61-2.277-4.704-4.862L338.178,314.597z"/>
				<path style="fill:#F0C694;" d="M358.114,326.721c-0.271,2.895-2.92,4.967-5.795,4.53c-2.558-0.388-4.41-2.644-4.293-5.229
					l0.324-7.168l10.371,1.365L358.114,326.721z"/>
				<path style="fill:#F0C694;" d="M338.09,314.095l0.424,9.838c0.125,2.905-2.219,5.317-5.126,5.275
					c-2.587-0.038-4.728-2.021-4.963-4.597l-0.922-10.103L338.09,314.095z"/>
			</g>
			<polygon style="fill:#9EE487;" points="268.637,198.161 252.887,194.551 252.887,194.036 251.761,194.293 250.636,194.036 
				250.636,194.551 234.886,196.661 182.759,219.161 182.759,332.415 250.636,332.415 252.887,332.415 320.764,332.415 
				320.764,220.661 			"/>
			<polygon style="fill:#98DB74;" points="268.637,202.661 252.887,199.051 252.887,198.536 251.761,198.793 250.636,198.536 
				250.636,199.051 234.886,201.161 182.759,223.661 182.759,336.915 250.636,336.915 252.887,336.915 320.764,336.915 
				320.764,225.161 			"/>
			<path style="fill:#A5E691;" d="M250.641,270.913L250.641,270.913v-47.668l4.871-4.084v46.881
				C255.512,268.732,253.331,270.913,250.641,270.913z"/>
			<path style="fill:#692D13;" d="M253.993,67.277h-7.764c-20.275,0-36.711,16.436-36.711,36.71v34.147h81.185v-34.147
				C290.704,83.713,274.268,67.277,253.993,67.277z"/>
			<path style="fill:#D1A57F;" d="M224.057,151.977h-7.608c-3.84,0-6.954-3.113-6.954-6.954v-16.422l14.562,10.346V151.977z"/>
			<path style="fill:#D1A57F;" d="M276.172,151.977h7.608c3.84,0,6.954-3.113,6.954-6.954v-16.422l-14.562,10.346V151.977z"/>
			<g>
				<rect x="224.244" y="183.91" style="fill:#A1631A;" width="51.978" height="21.001"/>
				<polygon style="fill:#DDB58E;" points="268.146,199.661 250.641,223.246 231.531,199.661 231.531,169.285 268.146,169.285 				
					"/>
				<polygon style="fill:#DF631A;" points="250.641,223.246 224.244,183.91 218.268,202.825 236.198,231.713 239.737,217.556 				
					"/>
				<polygon style="fill:#DF631A;" points="282.02,202.825 276.227,183.91 250.641,223.246 261.21,217.556 264.64,231.713 				"/>
			</g>
			<path style="fill:#EEC189;" d="M253.449,189.221h-6.61c-15.186,0-27.496-12.31-27.496-27.496V99.486l29.793,5.296l31.809-5.296
				v62.239C280.945,176.911,268.634,189.221,253.449,189.221z"/>
			<path style="fill:#F2D2A9;" d="M253.162,185.327h-6.036c-13.868,0-25.109-11.242-25.109-25.109v-56.837l26.745,5.297l29.51-5.297
				v56.837C278.271,174.085,267.029,185.327,253.162,185.327z"/>
			<circle cx="239.523" cy="133.2" r="2.299"/>
			<circle cx="260.077" cy="133.2" r="2.299"/>
			<path style="fill:#EBB17F;" d="M250.144,157.342L250.144,157.342c-2.54,0-4.598-2.059-4.598-4.598v-21.459l3.789-5.883
				c0.301-0.467,0.98-0.479,1.297-0.023l4.111,5.907v21.459C254.742,155.283,252.683,157.342,250.144,157.342z"/>
			<path style="fill:#EFC29A;" d="M250.144,153.693L250.144,153.693c-1.398,0-2.531-1.826-2.531-4.079v-19.035l2.085-5.219
				c0.166-0.414,0.539-0.425,0.714-0.021l2.263,5.239v19.035C252.675,151.867,251.542,153.693,250.144,153.693z"/>
			<path d="M244.829,121.983c0,0-4.451-3.643-10.117-0.812c-5.667,2.832-4.292,9.226-4.292,9.226s5.181-5.422,8.014-5.826
				c2.833-0.404,7.122,1.297,7.528-0.727C246.367,121.822,244.829,121.983,244.829,121.983z"/>
			<path d="M254.278,121.983c0,0,4.451-3.643,10.117-0.812c5.667,2.832,4.292,9.226,4.292,9.226s-5.181-5.422-8.014-5.826
				s-7.122,1.297-7.528-0.727C252.74,121.822,254.278,121.983,254.278,121.983z"/>
			<path style="fill:#DF631A;" d="M286.039,125.915c0.122-0.003,0.24-0.018,0.363-0.018c7.417,0,13.431,5.783,13.431,12.918
				c0,7.134-6.013,12.918-13.431,12.918c-0.123,0-0.241-0.015-0.363-0.018V125.915z"/>
			<path style="fill:#363636;" d="M286.883,154.176h2.852c1.768,0,3.201-1.433,3.201-3.201v-24.322c0-1.768-1.433-3.201-3.201-3.201
				h-2.852c-1.768,0-3.201,1.433-3.201,3.201v24.322C283.682,152.744,285.115,154.176,286.883,154.176z"/>
			<path style="fill:none;stroke:#000000;stroke-width:4;stroke-miterlimit:10;" d="M288.738,127.002v-20.813
				c0-22.368-17.058-40.501-38.1-40.501h-2.232h-0.678c-21.042,0-38.1,18.133-38.1,40.501v20.813"/>
			<path style="fill:none;stroke:#000000;stroke-width:7;stroke-linecap:round;stroke-miterlimit:10;" d="M285.191,89.102
				c-6.062-13.829-19.254-23.414-34.553-23.414h-2.232h-0.678c-15.418,0-28.696,9.735-34.693,23.738"/>
			<g>
				<rect x="285.759" y="124.152" style="fill:#7C7C7C;" width="4.5" height="30.025"/>
			</g>
			<rect x="282.887" y="232.662" style="fill:#FFFFFF;" width="21.001" height="33.751"/>
			<rect x="286.263" y="236.787" style="fill:#DF631A;" width="14.25" height="22.126"/>
			<rect x="291.138" y="224.787" width="4.5" height="10.125"/>
			<path style="fill:#FFFFFF;" d="M235.232,161.634h29.823l-1.771,1.672c-3.042,2.873-7.067,4.473-11.251,4.473h-3.612
				c-3.959,0-7.784-1.433-10.768-4.035L235.232,161.634z"/>
			<path style="fill:#73A65B;" d="M254.387,228.162c0-0.725-0.588-1.313-1.313-1.313c-0.725,0-1.313,0.588-1.313,1.313
				s0.588,1.313,1.313,1.313C253.799,229.474,254.387,228.887,254.387,228.162z"/>
			<path style="fill:#73A65B;" d="M254.387,242.225c0-0.725-0.588-1.313-1.313-1.313c-0.725,0-1.313,0.588-1.313,1.313
				s0.588,1.313,1.313,1.313C253.799,243.537,254.387,242.95,254.387,242.225z"/>
			<path style="fill:#73A65B;" d="M254.387,256.288c0-0.725-0.588-1.313-1.313-1.313c-0.725,0-1.313,0.588-1.313,1.313
				c0,0.725,0.588,1.313,1.313,1.313C253.799,257.6,254.387,257.013,254.387,256.288z"/>
			<path style="fill:#DF631A;" d="M211.766,125.915c-0.122-0.003-0.24-0.018-0.363-0.018c-7.418,0-13.431,5.783-13.431,12.918
				c0,7.134,6.013,12.918,13.431,12.918c0.123,0,0.241-0.015,0.363-0.018V125.915z"/>
			<path style="fill:#363636;" d="M210.922,154.176h-2.852c-1.768,0-3.201-1.433-3.201-3.201v-24.322
				c0-1.768,1.433-3.201,3.201-3.201h2.852c1.768,0,3.201,1.433,3.201,3.201v24.322
				C214.122,152.744,212.689,154.176,210.922,154.176z"/>
			<g>
				<rect x="207.545" y="124.152" style="fill:#7C7C7C;" width="4.5" height="30.025"/>
			</g>
			<path d="M247.918,179.035c0-2.33-1.889-4.219-4.219-4.219c-2.33,0-4.219,1.889-4.219,4.219c0,2.33,1.889,4.219,4.219,4.219
				C246.029,183.254,247.918,181.365,247.918,179.035z"/>
			<path style="fill:none;stroke:#000000;stroke-width:2;stroke-linecap:round;stroke-miterlimit:10;" d="M209.948,147.534
				c0,0-5.344,31.501,32.345,31.501"/>
			<path style="fill:#EEC189;" d="M242.942,136.695c0,0-5.019,4.276-10.566,5.701C232.376,142.396,238.98,143.822,242.942,136.695z"
				/>
			<path style="fill:#EEC189;" d="M256.494,136.695c0,0,5.019,4.276,10.566,5.701C267.06,142.396,260.456,143.822,256.494,136.695z"
				/>
			<circle style="fill:#FFFFFF;" cx="238.428" cy="131.938" r="0.735"/>
			<circle style="fill:#FFFFFF;" cx="259.197" cy="131.938" r="0.735"/>
		</g>
		<g>
			<g>
				<path style="fill:#7B7871;" d="M164.357,351.556l10.313,22.673h154.734l10.961-22.626c0.09-0.185,0.148-0.374,0.181-0.563h0.039
					v-4.124l-2.306,1.02v0.585H166.46v-0.585l-2.306-1.02v4.124h0.045C164.23,351.213,164.28,351.386,164.357,351.556z"/>
				<path style="fill:#646057;" d="M326.507,376.667l13.859-28.607c0.69-1.425-0.348-3.081-1.931-3.081H166.311
					c-1.561,0-2.6,1.614-1.953,3.034l13.034,28.654H326.507z"/>
			</g>
			<polygon style="fill:#CBCAC7;" points="339.139,285.164 164.759,285.164 167.009,280.725 336.889,280.725 			"/>
			<path style="fill:#ADAAA6;" d="M326.507,376.667H177.391c-2.219,0-4.074-1.687-4.285-3.896l-8.348-87.607h174.381l-8.348,87.607
				C330.581,374.98,328.726,376.667,326.507,376.667z"/>
			<path style="fill:#8F8C85;" d="M174.015,375.024c0.792,1.003,2.013,1.643,3.376,1.643h149.116c2.219,0,4.074-1.687,4.285-3.896
				l8.21-86.164C301.029,306.942,201.885,360.04,174.015,375.024z"/>
			<circle style="fill:#D4D4D4;" cx="251.25" cy="315.75" r="10.75"/>
		</g>
	</g>
	<g>
		
			<ellipse transform="matrix(0.9877 -0.1564 0.1564 0.9877 -28.1021 62.9807)" style="fill:#FFFFFF;" cx="386.101" cy="210.039" rx="41.754" ry="41.754"/>
		<g>
			<g>
				<path style="fill:#DF631A;" d="M386.102,243.524c-18.464,0-33.485-15.021-33.485-33.485c0-18.463,15.022-33.485,33.485-33.485v3
					c-16.81,0-30.485,13.675-30.485,30.485c0,16.81,13.676,30.485,30.485,30.485c16.81,0,30.484-13.676,30.484-30.485
					c0-8.027-3.094-15.605-8.712-21.337l2.143-2.1c6.171,6.296,9.569,14.619,9.569,23.437
					C419.586,228.503,404.564,243.524,386.102,243.524z"/>
			</g>
			<g>
				<g>
					<polygon style="fill:#DF631A;" points="412.8,185.195 403.985,183.517 406.937,191.991 					"/>
				</g>
			</g>
		</g>
		<g>
			<circle style="fill:none;stroke:#537EB1;stroke-width:2;stroke-miterlimit:10;" cx="386.101" cy="210.039" r="25.899"/>
			
				<ellipse style="fill:none;stroke:#537EB1;stroke-width:2;stroke-miterlimit:10;" cx="386.101" cy="210.039" rx="16.579" ry="25.899"/>
			
				<ellipse style="fill:none;stroke:#537EB1;stroke-width:2;stroke-miterlimit:10;" cx="386.101" cy="210.039" rx="8.153" ry="25.899"/>
			
				<line style="fill:none;stroke:#537EB1;stroke-width:2;stroke-miterlimit:10;" x1="374.081" y1="187.217" x2="398.385" y2="187.217"/>
			
				<line style="fill:none;stroke:#537EB1;stroke-width:2;stroke-miterlimit:10;" x1="374.081" y1="232.76" x2="398.385" y2="232.76"/>
			
				<line style="fill:none;stroke:#537EB1;stroke-width:2;stroke-miterlimit:10;" x1="367.954" y1="191.71" x2="404.512" y2="191.71"/>
			
				<line style="fill:none;stroke:#537EB1;stroke-width:2;stroke-miterlimit:10;" x1="367.954" y1="228.267" x2="404.512" y2="228.267"/>
			
				<line style="fill:none;stroke:#537EB1;stroke-width:2;stroke-miterlimit:10;" x1="363.257" y1="198.858" x2="409.209" y2="198.858"/>
			
				<line style="fill:none;stroke:#537EB1;stroke-width:2;stroke-miterlimit:10;" x1="363.257" y1="221.323" x2="409.209" y2="221.323"/>
			
				<line style="fill:none;stroke:#537EB1;stroke-width:2;stroke-miterlimit:10;" x1="360.602" y1="210.703" x2="411.864" y2="210.703"/>
		</g>
	</g>
</g>
<g id="DESIGNED_BY_FREEPIK">
	<g>
		<g id="XMLID_319_">
			<g id="XMLID_338_">
				<path id="XMLID_346_" style="fill:#222221;" d="M261.442,464.892c-0.49,0.502-0.91,1.054-1.255,1.646l-0.527-0.273
					c-0.076-0.337-0.396-0.569-0.746-0.528c-0.375,0.044-0.643,0.384-0.599,0.759c0.044,0.375,0.384,0.643,0.758,0.599
					c0.074-0.009,0.144-0.029,0.208-0.059l0.511,0.265c-0.284,0.627-0.49,1.289-0.611,1.975l0.845,0.149
					c0.26-1.479,0.962-2.839,2.029-3.932L261.442,464.892z"/>
				<path id="XMLID_345_" style="fill:#222221;" d="M267.656,462.285c-0.194,0-0.386,0.007-0.577,0.019l-0.083-0.709
					c0.212-0.169,0.335-0.44,0.301-0.73c-0.052-0.445-0.456-0.763-0.901-0.711c-0.445,0.052-0.763,0.455-0.711,0.901
					c0.034,0.288,0.214,0.522,0.458,0.638l0.083,0.707c-0.808,0.132-1.589,0.376-2.332,0.732l0.37,0.774
					c1.058-0.506,2.199-0.762,3.392-0.762c0.562,0,1.124,0.06,1.67,0.178l0.182-0.839
					C268.903,462.352,268.279,462.285,267.656,462.285z"/>
				<path id="XMLID_344_" style="fill:#222221;" d="M275.133,465.17c0.375-0.046,0.641-0.387,0.595-0.761
					c-0.046-0.375-0.387-0.641-0.761-0.595c-0.35,0.043-0.606,0.344-0.6,0.689l-0.471,0.411c-0.473-0.487-1.007-0.92-1.594-1.29
					l-0.458,0.726c1.284,0.809,2.288,1.955,2.903,3.313l0.782-0.354c-0.284-0.627-0.643-1.214-1.067-1.75l0.455-0.397
					C274.986,465.175,275.059,465.179,275.133,465.17z"/>
				<path id="XMLID_343_" style="fill:#222221;" d="M267.036,473.845c-0.437,0.026-0.878,0.039-1.31,0.039
					c-0.997,0-1.962-0.069-2.807-0.203c-0.442-0.07-0.958-0.176-1.438-0.331c1.185,2.107,3.476,3.539,6.102,3.539
					c3.233,0,5.959-2.17,6.737-5.1c-0.772,0.509-1.705,0.935-2.784,1.271C270.201,473.478,268.643,473.749,267.036,473.845z"/>
				<path id="XMLID_339_" style="fill:#222221;" d="M267.656,464.002c-3.796,0-6.884,3.019-6.884,6.73
					c0,0.482,0.052,0.962,0.155,1.428c0.763,0.547,3.064,1.008,6.055,0.828c3.261-0.196,5.998-1.084,7.556-2.444
					c-0.006-0.221-0.023-0.442-0.051-0.659C274.056,466.531,271.12,464.002,267.656,464.002z M265.211,471.38
					c-1.155,0-2.095-0.94-2.095-2.095c0-1.155,0.94-2.095,2.095-2.095c1.155,0,2.095,0.94,2.095,2.095
					C267.306,470.44,266.366,471.38,265.211,471.38z M270.576,470.351c-0.849,0-1.54-0.691-1.54-1.54
					c0-0.849,0.691-1.541,1.54-1.541c0.849,0,1.541,0.691,1.541,1.541C272.116,469.66,271.425,470.351,270.576,470.351z"/>
			</g>
			<path id="XMLID_336_" style="fill:#222221;" d="M285.779,466.116c-0.334-0.131-0.912-0.35-1.565-0.269
				c-0.624,0.078-0.956,0.386-0.956,1.14v0.981h2.523v1.945h-2.523v6.177h-2.188v-6.177h-1.517v-1.945h1.517v-1.006
				c0-1.902,1.014-3.151,2.908-3.151c0.728,0,1.31,0.138,1.8,0.349L285.779,466.116z"/>
			<path id="XMLID_334_" style="fill:#222221;" d="M291.104,469.89c-0.2-0.034-0.405-0.052-0.596-0.052
				c-1.014,0-1.71,0.62-1.71,1.827v4.425h-2.188v-8.122h2.12v0.888c0.511-0.763,1.291-1.106,2.288-1.106
				c0.469,0,0.96,0.144,1.239,0.381L291.104,469.89z"/>
			<path id="XMLID_331_" style="fill:#222221;" d="M299.786,472.017c0,0.251-0.017,0.553-0.042,0.738h-5.758
				c0.235,1.173,1.056,1.685,2.087,1.685c0.704,0,1.467-0.285,2.053-0.779l1.282,1.408c-0.922,0.846-2.095,1.232-3.461,1.232
				c-2.489,0-4.216-1.693-4.216-4.249c0-2.556,1.676-4.3,4.107-4.3C298.177,467.75,299.778,469.485,299.786,472.017z
				 M293.995,471.262h3.595c-0.201-1.039-0.83-1.626-1.768-1.626C294.791,469.636,294.187,470.257,293.995,471.262z"/>
			<path id="XMLID_328_" style="fill:#222221;" d="M308.453,472.017c0,0.251-0.017,0.553-0.042,0.738h-5.758
				c0.235,1.173,1.056,1.685,2.087,1.685c0.704,0,1.467-0.285,2.053-0.779l1.282,1.408c-0.922,0.846-2.095,1.232-3.461,1.232
				c-2.489,0-4.216-1.693-4.216-4.249c0-2.556,1.676-4.3,4.107-4.3C306.843,467.75,308.444,469.485,308.453,472.017z
				 M302.661,471.262h3.596c-0.201-1.039-0.83-1.626-1.769-1.626C303.457,469.636,302.854,470.257,302.661,471.262z"/>
			<path id="XMLID_325_" style="fill:#222221;" d="M317.903,472.025c0,2.439-1.693,4.275-3.931,4.275
				c-1.09,0-1.861-0.428-2.389-1.056v4.199h-2.179v-11.474h2.137v0.897c0.528-0.662,1.308-1.115,2.422-1.115
				C316.21,467.75,317.903,469.586,317.903,472.025z M311.475,472.025c0,1.282,0.846,2.238,2.087,2.238
				c1.291,0,2.095-0.997,2.095-2.238c0-1.24-0.805-2.238-2.095-2.238C312.321,469.787,311.475,470.742,311.475,472.025z"/>
			<path id="XMLID_322_" style="fill:#222221;" d="M321.418,465.311c0,0.788-0.612,1.391-1.4,1.391
				c-0.788,0-1.391-0.603-1.391-1.391c0-0.788,0.604-1.408,1.391-1.408C320.806,463.903,321.418,464.524,321.418,465.311z
				 M321.124,476.09h-2.188v-8.122h2.188V476.09z"/>
			<path id="XMLID_320_" style="fill:#222221;" d="M324.775,470.86l3.059-2.892h2.682l-3.939,3.822l3.964,4.3h-2.69l-3.076-3.285
				v3.285h-2.188v-12.069h2.188V470.86z"/>
		</g>
		<g>
			<path style="fill:#222221;" d="M175.729,476.016v-1.194c-0.597,0.813-1.576,1.393-2.704,1.393c-2.09,0-3.566-1.592-3.566-4.196
				c0-2.555,1.46-4.213,3.566-4.213c1.078,0,2.057,0.531,2.704,1.41v-4.263h1.244v11.064H175.729z M175.729,473.843v-3.633
				c-0.448-0.697-1.41-1.294-2.405-1.294c-1.609,0-2.571,1.327-2.571,3.102c0,1.775,0.962,3.085,2.571,3.085
				C174.319,475.104,175.281,474.54,175.729,473.843z"/>
			<path style="fill:#222221;" d="M178.582,472.002c0-2.322,1.659-4.197,3.948-4.197c2.422,0,3.848,1.891,3.848,4.296v0.316h-6.486
				c0.1,1.509,1.161,2.77,2.886,2.77c0.912,0,1.841-0.365,2.471-1.012l0.597,0.813c-0.796,0.796-1.874,1.227-3.185,1.227
				C180.29,476.215,178.582,474.507,178.582,472.002z M182.513,468.834c-1.709,0-2.555,1.443-2.621,2.67h5.258
				C185.134,470.31,184.337,468.834,182.513,468.834z"/>
			<path style="fill:#222221;" d="M187.273,474.955l0.647-0.895c0.531,0.614,1.543,1.145,2.637,1.145
				c1.228,0,1.891-0.581,1.891-1.377c0-1.94-4.96-0.746-4.96-3.716c0-1.244,1.078-2.306,2.985-2.306c1.36,0,2.323,0.514,2.969,1.161
				l-0.581,0.863c-0.481-0.581-1.36-1.012-2.389-1.012c-1.095,0-1.775,0.547-1.775,1.261c0,1.758,4.96,0.597,4.96,3.716
				c0,1.344-1.078,2.422-3.151,2.422C189.197,476.215,188.086,475.817,187.273,474.955z"/>
			<path style="fill:#222221;" d="M195.053,466.031c0-0.464,0.382-0.846,0.829-0.846c0.465,0,0.846,0.381,0.846,0.846
				c0,0.465-0.381,0.829-0.846,0.829C195.434,466.86,195.053,466.495,195.053,466.031z M195.268,476.016v-8.012h1.244v8.012H195.268
				z"/>
			<path style="fill:#222221;" d="M198.569,478.073l0.63-0.929c0.663,0.796,1.46,1.095,2.604,1.095c1.327,0,2.571-0.647,2.571-2.405
				v-1.145c-0.58,0.813-1.559,1.427-2.687,1.427c-2.09,0-3.566-1.559-3.566-4.147c0-2.571,1.46-4.163,3.566-4.163
				c1.078,0,2.04,0.531,2.687,1.41v-1.211h1.244v7.78c0,2.654-1.858,3.483-3.815,3.483
				C200.443,479.267,199.514,479.002,198.569,478.073z M204.374,473.711v-3.5c-0.432-0.697-1.393-1.294-2.389-1.294
				c-1.609,0-2.571,1.277-2.571,3.052c0,1.758,0.962,3.052,2.571,3.052C202.981,475.021,203.943,474.408,204.374,473.711z"/>
			<path style="fill:#222221;" d="M213.099,476.016v-5.242c0-1.41-0.713-1.858-1.791-1.858c-0.979,0-1.908,0.597-2.372,1.244v5.855
				h-1.244v-8.012h1.244v1.161c0.564-0.663,1.658-1.36,2.853-1.36c1.676,0,2.555,0.846,2.555,2.588v5.623H213.099z"/>
			<path style="fill:#222221;" d="M215.952,472.002c0-2.322,1.659-4.197,3.948-4.197c2.422,0,3.848,1.891,3.848,4.296v0.316h-6.486
				c0.099,1.509,1.161,2.77,2.886,2.77c0.912,0,1.841-0.365,2.472-1.012l0.597,0.813c-0.796,0.796-1.874,1.227-3.185,1.227
				C217.66,476.215,215.952,474.507,215.952,472.002z M219.883,468.834c-1.708,0-2.555,1.443-2.621,2.67h5.258
				C222.503,470.31,221.707,468.834,219.883,468.834z"/>
			<path style="fill:#222221;" d="M231.146,476.016v-1.194c-0.597,0.813-1.576,1.393-2.704,1.393c-2.09,0-3.566-1.592-3.566-4.196
				c0-2.555,1.46-4.213,3.566-4.213c1.078,0,2.057,0.531,2.704,1.41v-4.263h1.244v11.064H231.146z M231.146,473.843v-3.633
				c-0.448-0.697-1.41-1.294-2.405-1.294c-1.609,0-2.571,1.327-2.571,3.102c0,1.775,0.962,3.085,2.571,3.085
				C229.736,475.104,230.697,474.54,231.146,473.843z"/>
			<path style="fill:#222221;" d="M238.327,476.016v-11.064h1.244v4.263c0.647-0.879,1.609-1.41,2.704-1.41
				c2.09,0,3.566,1.659,3.566,4.213c0,2.604-1.476,4.196-3.566,4.196c-1.128,0-2.107-0.581-2.704-1.393v1.194H238.327z
				 M241.96,475.104c1.626,0,2.588-1.31,2.588-3.085c0-1.775-0.962-3.102-2.588-3.102c-0.979,0-1.957,0.597-2.388,1.294v3.633
				C240.003,474.54,240.981,475.104,241.96,475.104z"/>
			<path style="fill:#222221;" d="M247.201,478.023c0.182,0.083,0.481,0.133,0.68,0.133c0.547,0,0.912-0.182,1.194-0.846
				l0.531-1.211l-3.351-8.095h1.344l2.671,6.569l2.654-6.569h1.36l-4.014,9.637c-0.481,1.161-1.294,1.609-2.356,1.625
				c-0.265,0-0.68-0.05-0.912-0.116L247.201,478.023z"/>
		</g>
	</g>
</g>
</svg>
