<svg id="Layer_1" data-name="Layer 1" xmlns="http://www.w3.org/2000/svg" xmlns:xlink="http://www.w3.org/1999/xlink" viewBox="0 0 1000 1000"><defs><style>.cls-1{font-size:17.01px;fill:#ffffff;font-family:Poppins-Light, Poppins;}.cls-2{font-size:69.28px;font-family:EngraversGothicBT-Regular, EngraversGothic BT;}.cls-12,.cls-2{fill:#ffffff;}.cls-3{letter-spacing:-0.09em;}.cls-4{fill:url(#linear-gradient);}.cls-5{fill:url(#linear-gradient-2);}.cls-6{fill:url(#linear-gradient-3);}.cls-7{fill:url(#linear-gradient-4);}.cls-8{fill:url(#linear-gradient-5);}.cls-9{fill:url(#linear-gradient-6);}.cls-10{fill:url(#linear-gradient-7);}.cls-11{fill:none;stroke-miterlimit:10;stroke-width:2px;stroke:url(#linear-gradient-8);}</style><linearGradient id="linear-gradient" x1="74.06" y1="495.48" x2="190.89" y2="494.44" gradientUnits="userSpaceOnUse"><stop offset="0" stop-color="#c7e9f2"/><stop offset="1" stop-color="#068294"/></linearGradient><linearGradient id="linear-gradient-2" x1="75.18" y1="499.4" x2="175.5" y2="500.13" xlink:href="#linear-gradient"/><linearGradient id="linear-gradient-3" x1="44.41" y1="492.16" x2="204.12" y2="492.83" xlink:href="#linear-gradient"/><linearGradient id="linear-gradient-4" x1="70.58" y1="471.77" x2="84.74" y2="471.77" gradientUnits="userSpaceOnUse"><stop offset="0" stop-color="#fff"/><stop offset="1" stop-color="#068294"/></linearGradient><linearGradient id="linear-gradient-5" x1="149.94" y1="519.66" x2="162.86" y2="519.66" xlink:href="#linear-gradient-4"/><linearGradient id="linear-gradient-6" x1="103.19" y1="459.83" x2="111.97" y2="459.83" xlink:href="#linear-gradient-4"/><linearGradient id="linear-gradient-7" x1="83.78" y1="494.14" x2="89.3" y2="494.14" xlink:href="#linear-gradient-4"/><linearGradient id="linear-gradient-8" x1="42.07" y1="499.96" x2="209.91" y2="499.96" xlink:href="#linear-gradient"/></defs><title>Untitled-1</title><text class="cls-1" transform="translate(360.26 551.86) scale(1.5 1)">Realiable Network Solution Provider</text><text class="cls-2" transform="translate(227.19 516.35) scale(1.1 1)"><tspan class="cls-3">P</tspan><tspan x="34.24" y="0">acificCom Networks</tspan></text><path class="cls-4" d="M101.66,518.56c-9.76-12.78-17.94-26.93-23-42.26-2.49-7.66-4.28-15.64-4.26-23.76a37.67,37.67,0,0,1,1.93-12,25.6,25.6,0,0,1,2.76-5.48,22.24,22.24,0,0,1,4.22-4.5,22.51,22.51,0,0,1,5.42-3,26.62,26.62,0,0,1,6-1.31,38.15,38.15,0,0,1,12.19,1.14A75.62,75.62,0,0,1,129,437.59c13.58,8.94,25.19,20.55,35.07,33.37S182,498.15,187,513.61a75.74,75.74,0,0,1,4,24,37.92,37.92,0,0,1-2.13,12,26.14,26.14,0,0,1-2.86,5.47,19.76,19.76,0,0,1-9.75,7.33,26.46,26.46,0,0,1-6,1.21,37.46,37.46,0,0,1-12.07-1.32A76.42,76.42,0,0,1,136.33,552C122.89,543,111.41,531.37,101.66,518.56Zm0,0c9.82,12.75,21.38,24.29,34.83,33.15a74.76,74.76,0,0,0,21.78,10,36.85,36.85,0,0,0,11.86,1.11,25.18,25.18,0,0,0,5.77-1.25,18.74,18.74,0,0,0,9.16-7.1,25.32,25.32,0,0,0,2.64-5.25,36.5,36.5,0,0,0,1.87-11.66c0-8-1.75-15.86-4.21-23.44-5-15.19-13.16-29.26-22.86-42S141.39,447.89,128.07,439c-6.65-4.38-13.8-8.17-21.48-10.26a36.81,36.81,0,0,0-11.75-1.28,24.54,24.54,0,0,0-5.76,1.16,21,21,0,0,0-5.18,2.73,21.53,21.53,0,0,0-4.09,4.22,25.62,25.62,0,0,0-2.74,5.24A36.68,36.68,0,0,0,75,452.55a74.6,74.6,0,0,0,3.9,23.66C83.89,491.53,92,505.72,101.66,518.56Z"/><path class="cls-5" d="M92.17,482.74c7.25-14.19,16.29-27.6,27.64-38.88a78.35,78.35,0,0,1,19.1-14.38,37,37,0,0,1,11.43-3.77,24.73,24.73,0,0,1,6.08,0,18.27,18.27,0,0,1,10.79,5.42,24.62,24.62,0,0,1,3.63,4.92,37.14,37.14,0,0,1,3.84,11.5,77.17,77.17,0,0,1-.14,24.08c-2.41,15.91-7.93,31.2-15.14,45.51-7.37,14.23-16.54,27.65-28,38.93a77.34,77.34,0,0,1-19.43,14.22,37.39,37.39,0,0,1-11.57,3.61,24.58,24.58,0,0,1-6.12-.06,20.05,20.05,0,0,1-5.84-1.88,19.78,19.78,0,0,1-4.87-3.7A24.5,24.5,0,0,1,80,563.29a36.83,36.83,0,0,1-3.64-11.47,78.24,78.24,0,0,1,.48-23.91C79.33,512.1,84.91,496.93,92.17,482.74Zm0,0C85,497,79.52,512.17,77.12,528A76.66,76.66,0,0,0,77,551.71a36.06,36.06,0,0,0,3.74,11.18,23.05,23.05,0,0,0,3.48,4.71,17.11,17.11,0,0,0,10.2,5.12,23.14,23.14,0,0,0,5.82,0A35.87,35.87,0,0,0,111.33,569c7-3.58,13.21-8.67,18.84-14.2,11.25-11.18,20.24-24.51,27.45-38.62s12.76-29.2,15.24-44.86c1.19-7.81,1.69-15.8.48-23.59a35.84,35.84,0,0,0-3.54-11.16,23,23,0,0,0-3.38-4.73,19.42,19.42,0,0,0-4.6-3.51,19.12,19.12,0,0,0-5.53-1.77,23.37,23.37,0,0,0-5.85-.06A35.94,35.94,0,0,0,139.19,430a76.22,76.22,0,0,0-19.18,14C108.62,455.25,99.51,468.59,92.17,482.74Z"/><path class="cls-6" d="M115.74,455.85c15.51-3.66,31.57-5.44,47.5-4.08,7.94.72,15.9,2.16,23.32,5.27a37.11,37.11,0,0,1,10.26,6.28,24.62,24.62,0,0,1,4,4.62,20.3,20.3,0,0,1,2.43,5.61,20.57,20.57,0,0,1,.42,6.11,24.67,24.67,0,0,1-1.4,5.95A37.17,37.17,0,0,1,196,496a77.47,77.47,0,0,1-18.44,15.47c-13.7,8.45-28.91,14.14-44.49,17.89-15.61,3.59-31.77,5.28-47.8,3.81a77.08,77.08,0,0,1-23.4-5.63A36.89,36.89,0,0,1,51.59,521a24.18,24.18,0,0,1-3.91-4.7A18.12,18.12,0,0,1,45,504.56a24.25,24.25,0,0,1,1.49-5.89,37,37,0,0,1,6.38-10.2,78.29,78.29,0,0,1,18.53-15.1C85.06,465.05,100.23,459.48,115.74,455.85Zm0,0c-15.49,3.73-30.62,9.39-44.19,17.76a76.55,76.55,0,0,0-18.2,15.27A36.12,36.12,0,0,0,47.25,499a23.44,23.44,0,0,0-1.34,5.69,19.4,19.4,0,0,0,.4,5.79,18.94,18.94,0,0,0,2.3,5.3,23.09,23.09,0,0,0,3.78,4.42,36.16,36.16,0,0,0,10,6.1c7.27,3,15.15,4.47,23,5.19,15.79,1.35,31.77-.42,47.18-4.05s30.52-9.16,44.05-17.4c6.72-4.14,13.14-8.93,18.29-14.9a35.7,35.7,0,0,0,6.21-9.91,23.35,23.35,0,0,0,1.43-5.64A17.16,17.16,0,0,0,200,468.42a23.3,23.3,0,0,0-3.74-4.5,36.27,36.27,0,0,0-10-6.31,76.24,76.24,0,0,0-23.09-5.55C147.33,450.61,131.27,452.29,115.74,455.85Z"/><ellipse class="cls-7" cx="77.66" cy="471.77" rx="7.08" ry="7.35"/><ellipse class="cls-8" cx="156.4" cy="519.66" rx="6.46" ry="6.71"/><ellipse class="cls-9" cx="107.58" cy="459.83" rx="4.39" ry="4.56"/><ellipse class="cls-10" cx="86.54" cy="494.14" rx="2.76" ry="2.7"/><ellipse class="cls-11" cx="125.99" cy="499.96" rx="82.92" ry="82.1"/><path class="cls-12" d="M177.67,517.05c-.54,0-1.07.51-1.57,1.51a28.53,28.53,0,0,1-8.42,9.74,19.88,19.88,0,0,1-12.22,4.21,20.45,20.45,0,0,1-8.79-2,24.23,24.23,0,0,1-2.33-1.28,30.69,30.69,0,0,1-6.61-5.74q-7.95-9-7.94-23.41a43.18,43.18,0,0,1,2.87-15.84,25.57,25.57,0,0,1,8-11.37,18.25,18.25,0,0,1,11.35-4A19.88,19.88,0,0,1,165.14,474a34.54,34.54,0,0,1,9.33,13.24c.61,1.46,1.18,2.18,1.72,2.18s.64-.12.74-.33a8,8,0,0,0,.12-1.85l-1.12-17.7c-.06-1.21-.43-1.82-1.11-1.82s-1.14.39-1.46,1.21a2.33,2.33,0,0,1-.17.28,4.82,4.82,0,0,1-6.12,1.4,40.67,40.67,0,0,0-6.46-2.56,31.53,31.53,0,0,0-9.13-1.4,32.36,32.36,0,0,0-16.24,4.46A31.07,31.07,0,0,0,123,483.67a37.63,37.63,0,0,0-4.33,18.11,34.61,34.61,0,0,0,4.46,17.84,31.91,31.91,0,0,0,12.09,11.93,32.92,32.92,0,0,0,9.07,3.52c.79.18,1.56.33,2.34.45a33.19,33.19,0,0,0,4.69.34,29.88,29.88,0,0,0,13.47-3.1,28.51,28.51,0,0,0,10.12-8c2.58-3.32,3.86-5.47,3.86-6.45C178.79,517.44,178.41,517.05,177.67,517.05Z"/><path class="cls-12" d="M136.67,437.92q-5.52-5-21.43-5l-16.12.12-10-.05c-1,0-1.52.28-1.52.85s1.11,1.07,3.34,1.48a5.21,5.21,0,0,1,4.15,2.71c.73,1.44,1.07,4.74,1.07,9.9L96,462.56l.15,13.51c0,4.68-.1,8.78-.3,12.36s-.75,5.87-1.65,6.95a8.28,8.28,0,0,1-4.74,2.38q-1.92.42-1.92,1.23a.64.64,0,0,0,.38.67,44.79,44.79,0,0,0,6.26.18l13.94.05c3.12,0,4.91,0,5.38-.11a.8.8,0,0,0,.71-.84c0-.61-.77-1-2.33-1.07a7,7,0,0,1-3.89-1.42,6.3,6.3,0,0,1-2.33-2.74q-.54-1.43-.7-7.12c-.12-3.81-.18-6.28-.18-7.43,0-1.53,0-3,.14-4.51.22-3,.32-5.31.32-6.84l0,0c3.06.22,5.76.31,8.08.31q14.46,0,21.67-4.46t7.2-13.32A16,16,0,0,0,136.67,437.92Zm-6.6,19.95a11.78,11.78,0,0,1-6.66,6.38,26.77,26.77,0,0,1-9.74,1.77q-1,0-8.46-.25c0-1.55,0-2.64,0-3.24l.19-12.4-.19-11.65v-2.26a33.32,33.32,0,0,1,9.17-1.13q10.08,0,14,4a13.32,13.32,0,0,1,3.89,9.7A21.67,21.67,0,0,1,130.07,457.87Z"/><path class="cls-12" d="M142.39,529.25c0,2,0,4,0,5.82,0,1.24,0,2.44,0,3.6a4.68,4.68,0,0,1-8.23,3l-6.38-7.37-14.78-17.12q-5.4-6.19-8.25-9.82a4.66,4.66,0,0,0-3.64-1.77l-11.28-.09c-1.36,0-2,.3-2,.87s.53.72,1.58.84c2.34.31,4.43,1.69,6.25,4.13a21.91,21.91,0,0,1,3.54,6.24c.53,1.7.77,7.34.77,16.92l.38,16.21c0,5.44-.62,9-1.89,10.67s-3.79,2.53-7.58,2.53c-1,0-1.52.3-1.52.92s.52.79,1.57.79l22.21,0c1.13,0,1.71-.28,1.71-.84,0-.74-1-1.12-3-1.12a7.22,7.22,0,0,1-4.27-1.42,9.64,9.64,0,0,1-2.82-2.84q-.81-1.41-1.54-9.53t-.74-21.75l-.1-7.15c0-1.21.17-1.8.51-1.8s.9.45,1.43,1.37q1.2,2,7.9,9.16c1.2,1.27,4.09,4.72,8.68,10.28,2.08,2.59,5,6,8.61,10.12s6.71,7.71,9.2,10.68a48.12,48.12,0,0,0,4.15,4.67,1.62,1.62,0,0,0,.64.2c.61,0,.9-.61.9-1.84l.46-24.4v-3.92c0-.72,0-1.42,0-2.1a4.86,4.86,0,0,0-2.32-4.17Z"/></svg>